<svg width="15" height="17" viewBox="0 0 15 17" fill="none" xmlns="http://www.w3.org/2000/svg">
<path d="M6.50003 1.65955L6.50003 13.5195L2.14003 9.88955C1.93581 9.71981 1.67253 9.63815 1.40811 9.66253C1.14368 9.6869 0.89977 9.81533 0.730031 10.0195C0.560293 10.2238 0.478631 10.487 0.503011 10.7515C0.52739 11.0159 0.655815 11.2598 0.860031 11.4295L6.86003 16.4295C6.90776 16.4632 6.95789 16.4933 7.01003 16.5195C7.06003 16.5195 7.09003 16.5195 7.14003 16.5895C7.25469 16.6349 7.37674 16.6586 7.50003 16.6595C7.62332 16.6586 7.74537 16.6349 7.86003 16.5895C7.91003 16.5895 7.94003 16.5895 7.99003 16.5195C8.04217 16.4933 8.09231 16.4632 8.14003 16.4295L14.14 11.4295C14.2529 11.3355 14.3437 11.2178 14.4059 11.0847C14.4681 10.9516 14.5003 10.8065 14.5 10.6595C14.5005 10.4259 14.4191 10.1995 14.27 10.0195C14.1861 9.91829 14.083 9.83458 13.9666 9.77323C13.8503 9.71188 13.723 9.67408 13.592 9.66201C13.461 9.64993 13.329 9.66381 13.2034 9.70286C13.0777 9.7419 12.9611 9.80534 12.86 9.88954L8.50003 13.5195L8.50003 1.65955C8.50003 1.39433 8.39467 1.13997 8.20714 0.952438C8.0196 0.764902 7.76525 0.659546 7.50003 0.659546C7.23481 0.659546 6.98046 0.764902 6.79292 0.952438C6.60539 1.13997 6.50003 1.39433 6.50003 1.65955Z" fill="#F8FAFC"/>
</svg>
