<svg width="20" height="20" viewBox="0 0 20 20" fill="none" xmlns="http://www.w3.org/2000/svg">
<path d="M15.758 4C15.148 4 14.588 3.65 14.308 3.11L13.588 1.66C13.128 0.75 11.928 0 10.908 0H8.61798C7.58798 0 6.38798 0.75 5.92798 1.66L5.20798 3.11C4.92798 3.65 4.36798 4 3.75798 4C1.58798 4 -0.13202 5.83 0.00798004 7.99L0.52798 16.25C0.64798 18.31 1.75798 20 4.51798 20H14.998C17.758 20 18.858 18.31 18.988 16.25L19.508 7.99C19.648 5.83 17.928 4 15.758 4ZM8.25798 5.25H11.258C11.668 5.25 12.008 5.59 12.008 6C12.008 6.41 11.668 6.75 11.258 6.75H8.25798C7.84798 6.75 7.50798 6.41 7.50798 6C7.50798 5.59 7.84798 5.25 8.25798 5.25ZM9.75798 16.12C7.89798 16.12 6.37798 14.61 6.37798 12.74C6.37798 10.87 7.88798 9.36 9.75798 9.36C11.628 9.36 13.138 10.87 13.138 12.74C13.138 14.61 11.618 16.12 9.75798 16.12Z" fill="#F3F0FD"/>
</svg>
