<svg width="20" height="17" viewBox="0 0 20 17" fill="none" xmlns="http://www.w3.org/2000/svg">
<path d="M12.55 14.2911C12.55 15.2901 11.6434 16.1 10.525 16.1C9.40667 16.1 8.50005 15.2901 8.50005 14.2911C8.50005 13.2921 9.40667 12.4823 10.525 12.4823C11.6434 12.4823 12.55 13.2921 12.55 14.2911ZM12.55 14.2911V8.86453M19.3 12.4823C19.3 13.4813 18.3934 14.2911 17.275 14.2911C16.1567 14.2911 15.25 13.4813 15.25 12.4823C15.25 11.4832 16.1567 10.6734 17.275 10.6734C18.3934 10.6734 19.3 11.4832 19.3 12.4823ZM19.3 12.4823V7.05567M12.55 8.86453L19.3 7.05567M12.55 8.86453V6.75938C12.55 6.22097 12.9496 5.74779 13.5292 5.59987L14.9125 5.24681L18.0097 4.39554C18.6509 4.21932 19.3 4.64757 19.3 5.24681V7.05567M15.7 1H1.30005M8.50005 6.03333H1.30005M6.70005 11.0667H1.30005M4.90005 16.1H1.30005" stroke="#3B3B4A" stroke-width="1.4" stroke-linecap="round"/>
</svg>
