<svg width="16" height="20" viewBox="0 0 16 20" fill="none" xmlns="http://www.w3.org/2000/svg">
<path fill-rule="evenodd" clip-rule="evenodd" d="M10.4713 4C10.4713 2.34315 9.35203 1 7.97131 1C6.5906 1 5.47131 2.34315 5.47131 4H10.4713Z" stroke="#3B3B4A" stroke-width="1.4" stroke-linecap="round" stroke-linejoin="round"/>
<path d="M4.57237 11.0007C4.29653 10.7298 3.85333 10.7338 3.58246 11.0097C3.31159 11.2855 3.31561 11.7287 3.59145 11.9996L4.57237 11.0007ZM6.62736 13.9997L6.13691 14.4992C6.40921 14.7666 6.84552 14.7666 7.11782 14.4992L6.62736 13.9997ZM12.2087 9.49997C12.4846 9.22909 12.4886 8.7859 12.2177 8.51006C11.9469 8.23422 11.5037 8.23019 11.2278 8.50106L12.2087 9.49997ZM10.4455 3.30117C10.0589 3.30117 9.74548 3.61457 9.74548 4.00117C9.74548 4.38777 10.0589 4.70117 10.4455 4.70117V3.30117ZM12.5671 4.00117V4.70117C12.5745 4.70117 12.5818 4.70105 12.5892 4.70082L12.5671 4.00117ZM14.9 6.14333H15.6C15.6 6.13503 15.5999 6.12673 15.5996 6.11843L14.9 6.14333ZM14.9 16.8554L15.5996 16.8799C15.5999 16.8718 15.6 16.8636 15.6 16.8554H14.9ZM12.5671 18.9988L12.5892 18.2992C12.5818 18.2989 12.5745 18.2988 12.5671 18.2988V18.9988ZM3.23293 18.9988V18.2988C3.22557 18.2988 3.21821 18.2989 3.21085 18.2992L3.23293 18.9988ZM0.900024 16.8567H0.200024C0.200024 16.865 0.200172 16.8733 0.200468 16.8816L0.900024 16.8567ZM0.900024 6.14333L0.200468 6.11843C0.200172 6.12673 0.200024 6.13503 0.200024 6.14333H0.900024ZM3.23293 4.00117L3.21085 4.70082C3.21821 4.70105 3.22557 4.70117 3.23293 4.70117V4.00117ZM5.35457 4.70117C5.74117 4.70117 6.05457 4.38777 6.05457 4.00117C6.05457 3.61457 5.74117 3.30117 5.35457 3.30117V4.70117ZM3.59145 11.9996L6.13691 14.4992L7.11782 13.5003L4.57237 11.0007L3.59145 11.9996ZM7.11782 14.4992L12.2087 9.49997L11.2278 8.50106L6.13691 13.5003L7.11782 14.4992ZM10.4455 4.70117H12.5671V3.30117H10.4455V4.70117ZM12.5892 4.70082C13.4618 4.67328 14.1711 5.34194 14.2005 6.16824L15.5996 6.11843C15.5419 4.49796 14.1643 3.25041 12.545 3.30152L12.5892 4.70082ZM14.2 6.14333V16.8554H15.6V6.14333H14.2ZM14.2005 16.8309C14.1715 17.6575 13.4621 18.3267 12.5892 18.2992L12.545 19.6985C14.165 19.7496 15.5428 18.5011 15.5996 16.8799L14.2005 16.8309ZM12.5671 18.2988H3.23293V19.6988H12.5671V18.2988ZM3.21085 18.2992C2.33827 18.3267 1.629 17.6581 1.59958 16.8318L0.200468 16.8816C0.258155 18.502 1.63571 19.7496 3.25502 19.6985L3.21085 18.2992ZM1.60002 16.8567V6.14333H0.200024V16.8567H1.60002ZM1.59958 6.16824C1.629 5.34194 2.33828 4.67328 3.21085 4.70082L3.25502 3.30152C1.63571 3.25041 0.258155 4.49796 0.200468 6.11843L1.59958 6.16824ZM3.23293 4.70117H5.35457V3.30117H3.23293V4.70117Z" fill="#3B3B4A"/>
</svg>
