<svg width="36" height="40" viewBox="0 0 36 40" fill="none" xmlns="http://www.w3.org/2000/svg">
<path d="M16.3874 2.43441C17.3846 1.8552 18.6154 1.8552 19.6126 2.43441L25.9924 6.13978L32.3874 9.81892C33.387 10.394 34.0024 11.4612 34 12.6155L33.9849 20L34 27.3845C34.0024 28.5388 33.387 29.606 32.3874 30.1811L25.9924 33.8602L19.6126 37.5656C18.6154 38.1448 17.3846 38.1448 16.3874 37.5656L10.0076 33.8602L3.61263 30.1811C2.61301 29.606 1.99764 28.5388 2.00001 27.3845L2.01513 20L2.00001 12.6155C1.99764 11.4612 2.61301 10.394 3.61263 9.81892L10.0076 6.13978L16.3874 2.43441Z" stroke="#EDE9FE" stroke-width="2.5"/>
<path d="M23.6242 20C23.6242 23.11 21.1062 25.6311 18 25.6311C14.8938 25.6311 12.3758 23.11 12.3758 20C12.3758 16.89 14.8938 14.3689 18 14.3689C21.1062 14.3689 23.6242 16.89 23.6242 20Z" stroke="#EDE9FE" stroke-width="2.5"/>
</svg>
