<svg width="593" height="29" viewBox="0 0 593 29" fill="none" xmlns="http://www.w3.org/2000/svg">
<path d="M0 14.5209C1.57085 14.5361 3.14067 14.5535 4.71153 14.5659C12.3868 14.6258 20.0662 14.6513 27.7374 14.7512C37.2623 14.8752 46.7903 14.8093 56.3141 14.8816C57.5476 14.8908 58.782 14.894 60.0155 14.9025C60.4259 14.9054 60.8683 14.8841 61.2417 14.9284C62.7097 15.1038 64.2219 15.0535 65.7207 15.0602C74.2889 15.0995 82.8654 15.0719 91.4254 15.1863C99.9905 15.3011 108.558 15.2437 117.119 15.3309C120.406 15.3646 123.691 15.4361 126.979 15.467C130.884 15.5035 134.791 15.5134 138.697 15.5378C145.139 15.5779 151.581 15.6197 158.024 15.6618C165.629 15.7115 173.237 15.731 180.839 15.8202C192.83 15.9616 204.825 15.9719 216.82 16.0307C219.902 16.046 222.979 16.1416 226.061 16.1781C228.868 16.2114 231.68 16.2121 234.489 16.2316C241.479 16.2798 248.47 16.334 255.46 16.3783C260.393 16.4095 265.328 16.4251 270.262 16.4541C272.935 16.4697 275.609 16.4846 278.279 16.5275C279.781 16.5516 281.297 16.5927 282.767 16.6951C284.801 16.8368 286.63 17.1724 288.231 17.622C290.113 18.1507 291.529 18.8108 292.397 19.5999C292.542 19.7321 292.728 19.8628 292.8 20.0003C293.304 20.9722 293.916 21.9371 294.272 22.9189C294.535 23.6421 294.985 24.3568 295.341 25.0761C295.604 25.6105 295.858 26.1455 296.1 26.6812C296.427 27.402 296.737 28.1237 297.063 28.8444C297.081 28.8827 297.187 28.9164 297.337 29C297.483 28.8965 297.649 28.8239 297.689 28.7435C297.932 28.2559 298.15 27.7669 298.37 27.2783C298.422 27.1617 298.404 27.0391 298.497 26.9275C299.168 26.1317 299.308 25.305 299.714 24.4939C300.097 23.7293 300.544 22.9685 300.925 22.2039C301.19 21.6692 301.366 21.1296 301.627 20.5945C302.458 18.8845 305.231 17.6847 309.761 16.9527C311.53 16.6667 313.432 16.5711 315.348 16.5473C319.389 16.497 323.433 16.4595 327.476 16.4488C333.509 16.4329 339.537 16.3904 345.566 16.3142C350.155 16.2561 354.751 16.2462 359.343 16.2362C364.621 16.2245 369.893 16.1795 375.168 16.0902C379.889 16.0102 384.624 15.9854 389.352 15.9924C398.061 16.0056 406.757 15.8536 415.46 15.8032C418.613 15.7852 421.767 15.7898 424.92 15.7639C430.878 15.715 436.835 15.636 442.795 15.5988C449.374 15.5573 455.956 15.5577 462.537 15.5215C465.413 15.5056 468.285 15.428 471.162 15.4078C478.494 15.3561 485.829 15.3284 493.162 15.2767C497.476 15.2462 501.788 15.17 506.102 15.1477C514.464 15.1041 522.829 15.0846 531.192 15.0542C532.01 15.0513 532.811 15.052 533.622 14.9589C534.25 14.8869 534.973 14.9015 535.654 14.899C544.292 14.8713 552.93 14.8593 561.567 14.8175C565.54 14.7983 569.509 14.7101 573.481 14.6768C579.648 14.6254 585.817 14.5943 591.986 14.5539C592.32 14.5517 592.654 14.5432 593 14.4663C592.583 14.4536 592.167 14.4309 591.75 14.4295C582.359 14.3987 572.967 14.3724 563.576 14.3366C562.767 14.3335 561.961 14.2661 561.153 14.2343C560.545 14.2102 559.934 14.1811 559.324 14.179C551.235 14.1499 543.145 14.1262 535.056 14.0985C533.137 14.0922 531.214 14.1007 529.3 14.0603C518.486 13.8317 507.646 14.0085 496.833 13.8176C487.038 13.6443 477.234 13.7244 467.438 13.6422C465.737 13.628 464.017 13.6772 462.339 13.4994C461.835 13.4459 461.25 13.4834 460.702 13.4816C451.859 13.4494 443.006 13.4926 434.174 13.3654C424.24 13.2223 414.306 13.2914 404.375 13.206C403.485 13.1982 402.616 13.189 401.747 13.0841C401.188 13.0168 400.53 13.0359 399.917 13.0341C393.13 13.0139 386.343 13.0044 379.556 12.9778C374.758 12.9586 369.953 12.9679 365.165 12.874C358.795 12.7485 352.421 12.8116 346.052 12.7397C341.395 12.6872 336.739 12.6125 332.08 12.5792C327.556 12.5469 323.031 12.5551 318.506 12.5455C317.683 12.5437 316.86 12.531 316.038 12.5412C314.446 12.5611 312.925 12.475 311.398 12.3074C306.336 11.7514 303.295 10.5428 301.76 8.83776C301.561 8.61595 301.575 8.37146 301.484 8.13796C301.127 7.22697 300.448 6.33511 300.242 5.41384C300.122 4.87667 299.701 4.34766 299.44 3.81368C299.02 2.95442 298.632 2.09339 298.209 1.23413C298.037 0.885471 297.822 0.539293 297.599 0.194173C297.561 0.136063 297.38 0.0889371 297.185 -4.0413e-07C297.001 0.415632 296.844 0.786614 296.673 1.15654C296.512 1.5052 296.339 1.85316 296.164 2.20146C295.838 2.85131 295.507 3.5008 295.18 4.15065C294.887 4.73069 294.569 5.30931 294.313 5.89113C294.039 6.52042 293.901 7.15787 293.561 7.7822C293.248 8.35835 292.903 8.94299 292.297 9.4876C290.701 10.9205 287.557 11.7968 283.409 12.3031C281.882 12.4895 280.357 12.5427 278.772 12.5405C276.373 12.5373 273.973 12.5423 271.574 12.5575C266.641 12.5887 261.708 12.6305 256.774 12.6649C250.743 12.7067 244.712 12.7425 238.68 12.7868C235.189 12.8123 231.698 12.8545 228.207 12.881C222.931 12.9211 217.654 12.9629 212.378 12.9866C206.551 13.0129 200.724 13.0189 194.897 13.0348C194.01 13.0373 193.145 13.049 192.265 13.1404C191.498 13.2198 190.637 13.2021 189.817 13.2049C181.796 13.2322 173.775 13.2446 165.754 13.2832C162.196 13.3002 158.641 13.3877 155.082 13.4076C148.502 13.4448 141.92 13.4678 135.339 13.4696C133.482 13.47 131.666 13.5883 129.826 13.6053C125.304 13.6475 120.78 13.6843 116.257 13.6808C108.921 13.6751 101.595 13.7896 94.2646 13.8462C86.04 13.9097 77.8133 13.9189 69.5877 13.9657C67.4696 13.9777 65.3545 14.0688 63.2374 14.0783C53.9831 14.1205 44.7287 14.1457 35.4733 14.1783C34.6565 14.1811 33.8562 14.1776 33.0497 14.2835C32.4993 14.3558 31.8358 14.337 31.2216 14.3391C21.6926 14.3717 12.1636 14.4004 2.63455 14.432C1.75602 14.4348 0.878526 14.449 0 14.4575C0 14.4791 1.00463e-06 14.5007 0.00102972 14.5223L0 14.5209Z" fill="#8B5CF6" style="mix-blend-mode:plus-lighter"/>
</svg>
