<svg width="71" height="52" viewBox="0 0 71 52" fill="none" xmlns="http://www.w3.org/2000/svg">
<path d="M0.5 25.9009C0.68543 25.8956 0.870737 25.8896 1.05617 25.8854C1.96219 25.8647 2.86869 25.8559 3.77422 25.8215C4.89858 25.7787 6.0233 25.8014 7.14754 25.7765C7.29314 25.7733 7.43886 25.7722 7.58446 25.7693C7.63291 25.7683 7.68513 25.7756 7.72921 25.7604C7.90249 25.6999 8.081 25.7172 8.25793 25.7149C9.26935 25.7013 10.2817 25.7109 11.2922 25.6714C12.3033 25.6318 13.3146 25.6516 14.3251 25.6216C14.7132 25.61 15.101 25.5853 15.4891 25.5746C15.95 25.5621 16.4112 25.5586 16.8723 25.5502C17.6328 25.5364 18.3932 25.522 19.1537 25.5074C20.0515 25.4903 20.9496 25.4836 21.8469 25.4528C23.2624 25.4041 24.6784 25.4005 26.0943 25.3802C26.4581 25.375 26.8213 25.342 27.1851 25.3294C27.5165 25.3179 27.8484 25.3177 28.18 25.311C29.0052 25.2944 29.8303 25.2757 30.6555 25.2604C31.2378 25.2496 31.8204 25.2443 32.4028 25.2342C32.7182 25.2289 33.034 25.2237 33.3491 25.2089C33.5264 25.2006 33.7054 25.1865 33.8789 25.1512C34.119 25.1023 34.3349 24.9866 34.5239 24.8315C34.7461 24.6492 34.9132 24.4216 35.0157 24.1495C35.0328 24.1039 35.0548 24.0588 35.0633 24.0114C35.1228 23.6763 35.195 23.3436 35.237 23.005C35.268 22.7556 35.3212 22.5092 35.3632 22.2611C35.3943 22.0769 35.4242 21.8924 35.4528 21.7077C35.4914 21.4591 35.528 21.2102 35.5665 20.9617C35.5685 20.9485 35.5811 20.9369 35.5988 20.9081C35.616 20.9438 35.6356 20.9688 35.6403 20.9965C35.6691 21.1647 35.6947 21.3333 35.7207 21.5018C35.7269 21.542 35.7247 21.5842 35.7358 21.6227C35.8149 21.8972 35.8315 22.1822 35.8794 22.4619C35.9246 22.7256 35.9774 22.9879 36.0223 23.2516C36.0537 23.4359 36.0744 23.622 36.1052 23.8065C36.2033 24.3962 36.5307 24.8099 37.0653 25.0623C37.2742 25.1609 37.4987 25.1939 37.7249 25.2021C38.202 25.2195 38.6793 25.2324 39.1566 25.2361C39.8686 25.2416 40.5802 25.2562 41.292 25.2825C41.8337 25.3025 42.3761 25.306 42.9182 25.3094C43.5413 25.3134 44.1636 25.3289 44.7862 25.3597C45.3436 25.3873 45.9025 25.3959 46.4606 25.3934C47.4886 25.3889 48.5151 25.4413 49.5424 25.4587C49.9146 25.4649 50.2869 25.4633 50.6591 25.4723C51.3625 25.4891 52.0657 25.5164 52.7692 25.5292C53.5459 25.5435 54.3228 25.5434 55.0996 25.5558C55.4391 25.5613 55.7782 25.5881 56.1177 25.595C56.9833 25.6129 57.8491 25.6224 58.7147 25.6403C59.224 25.6508 59.7329 25.677 60.2422 25.6847C61.2294 25.6998 62.2167 25.7065 63.204 25.717C63.3005 25.718 63.395 25.7177 63.4908 25.7499C63.5649 25.7747 63.6503 25.7696 63.7307 25.7705C64.7503 25.78 65.77 25.7842 66.7896 25.7986C67.2586 25.8052 67.7271 25.8356 68.1959 25.8471C68.9239 25.8648 69.6521 25.8756 70.3803 25.8895C70.4197 25.8902 70.4592 25.8932 70.5 25.9197C70.4508 25.9241 70.4016 25.9319 70.3525 25.9324C69.2439 25.943 68.1352 25.9521 67.0266 25.9644C66.9312 25.9655 66.8361 25.9887 66.7406 25.9997C66.6689 26.008 66.5967 26.018 66.5247 26.0188C65.5699 26.0288 64.6149 26.037 63.6601 26.0465C63.4335 26.0487 63.2066 26.0458 62.9806 26.0597C61.7041 26.1385 60.4245 26.0775 59.1481 26.1434C57.9918 26.2032 56.8345 26.1755 55.6781 26.2039C55.4774 26.2088 55.2744 26.1918 55.0763 26.2531C55.0168 26.2716 54.9477 26.2586 54.883 26.2592C53.8391 26.2704 52.7941 26.2554 51.7516 26.2993C50.5789 26.3487 49.4063 26.3248 48.234 26.3543C48.1289 26.357 48.0263 26.3602 47.9237 26.3963C47.8578 26.4195 47.7801 26.4129 47.7077 26.4136C46.9066 26.4205 46.1054 26.4238 45.3043 26.433C44.7379 26.4396 44.1707 26.4364 43.6055 26.4688C42.8535 26.512 42.1011 26.4903 41.3493 26.5151C40.7996 26.5332 40.2499 26.559 39.7 26.5704C39.166 26.5816 38.6318 26.5787 38.0977 26.582C38.0005 26.5827 37.9034 26.5871 37.8063 26.5835C37.6185 26.5767 37.4389 26.6064 37.2587 26.6642C36.6611 26.8559 36.3021 27.2726 36.1209 27.8606C36.0974 27.9371 36.0991 28.0214 36.0883 28.1019C36.0461 28.416 35.966 28.7236 35.9417 29.0412C35.9275 29.2265 35.8778 29.4089 35.847 29.593C35.7975 29.8893 35.7517 30.1862 35.7018 30.4825C35.6815 30.6027 35.6561 30.7221 35.6298 30.8411C35.6253 30.8612 35.6039 30.8774 35.5808 30.9081C35.5592 30.7648 35.5406 30.6368 35.5205 30.5093C35.5014 30.389 35.481 30.2691 35.4604 30.149C35.4219 29.9249 35.3828 29.7009 35.3441 29.4768C35.3097 29.2768 35.272 29.0773 35.2419 28.8767C35.2095 28.6597 35.1932 28.4398 35.1531 28.2246C35.1161 28.0259 35.0754 27.8243 35.0039 27.6365C34.8154 27.1424 34.4443 26.8402 33.9547 26.6656C33.7745 26.6014 33.5944 26.583 33.4073 26.5838C33.1241 26.5849 32.8408 26.5831 32.5576 26.5779C31.9753 26.5671 31.393 26.5527 30.8106 26.5409C30.0987 26.5265 29.3867 26.5141 28.6747 26.4988C28.2626 26.49 27.8506 26.4755 27.4384 26.4663C26.8156 26.4525 26.1928 26.4381 25.5699 26.4299C24.8821 26.4209 24.1942 26.4188 23.5064 26.4133C23.4017 26.4125 23.2996 26.4084 23.1956 26.3769C23.1052 26.3495 23.0035 26.3556 22.9068 26.3547C21.9599 26.3453 21.0131 26.341 20.0663 26.3277C19.6462 26.3218 19.2266 26.2916 18.8065 26.2848C18.0297 26.2719 17.2528 26.264 16.476 26.2634C16.2568 26.2633 16.0423 26.2225 15.8252 26.2166C15.2914 26.2021 14.7573 26.1893 14.2234 26.1906C13.3574 26.1925 12.4927 26.1531 11.6274 26.1335C10.6565 26.1116 9.68539 26.1085 8.7144 26.0923C8.46437 26.0882 8.2147 26.0568 7.96479 26.0535C6.87237 26.0389 5.77995 26.0303 4.68741 26.019C4.59099 26.018 4.49651 26.0193 4.40131 25.9827C4.33634 25.9578 4.25802 25.9643 4.18552 25.9636C3.06068 25.9523 1.93583 25.9424 0.810992 25.9315C0.707288 25.9306 0.603705 25.9257 0.5 25.9227C0.5 25.9153 0.5 25.9078 0.500122 25.9004L0.5 25.9009Z" fill="white"/>
<g style="mix-blend-mode:hard-light">
<path d="M52.1347 38.764C61.4333 31.6648 61.4333 20.1548 52.1347 13.0556C42.8361 5.95642 27.7602 5.95642 18.4616 13.0556C9.16299 20.1548 9.16299 31.6648 18.4616 38.764C27.7602 45.8632 42.8361 45.8632 52.1347 38.764Z" fill="url(#paint0_radial_260_450)" style="mix-blend-mode:overlay"/>
</g>
<defs>
<radialGradient id="paint0_radial_260_450" cx="0" cy="0" r="1" gradientUnits="userSpaceOnUse" gradientTransform="translate(35.3008 25.91) scale(23.8105 18.1786)">
<stop stop-color="white"/>
<stop offset="0.02" stop-color="white" stop-opacity="0.93"/>
<stop offset="0.09" stop-color="#FDD4FF" stop-opacity="0.74"/>
<stop offset="0.17" stop-color="#E4B9FF" stop-opacity="0.56"/>
<stop offset="0.25" stop-color="#E5A7FF" stop-opacity="0.41"/>
<stop offset="0.34" stop-color="#D58AFF" stop-opacity="0.28"/>
<stop offset="0.43" stop-color="#E080FF" stop-opacity="0.18"/>
<stop offset="0.53" stop-color="#E369FF" stop-opacity="0.1"/>
<stop offset="0.64" stop-color="#82AAFF" stop-opacity="0.04"/>
<stop offset="0.78" stop-color="#82FFFA" stop-opacity="0.01"/>
<stop offset="1" stop-color="#82FAFF" stop-opacity="0"/>
</radialGradient>
</defs>
</svg>
