<svg width="1123" height="1123" viewBox="0 0 1123 1123" fill="none" xmlns="http://www.w3.org/2000/svg">
<circle cx="561.5" cy="561.5" r="561.5" transform="matrix(1 0 0 -1 0 1123)" fill="#4A4A50"/>
<g clip-path="url(#clip0_40_198)">
<path d="M531.271 525.052C541.875 514.964 541.875 498.411 531.271 488.324C521.184 478.237 504.631 478.237 494.544 488.324C470.318 512.586 456.712 545.469 456.712 579.755C456.712 614.04 470.318 646.923 494.544 671.185L586.103 762.745C610.365 786.97 643.248 800.576 677.534 800.576C711.819 800.576 744.703 786.97 768.964 762.745C793.189 738.483 806.795 705.599 806.795 671.314C806.795 637.029 793.189 604.145 768.964 579.884L730.426 541.346C730.685 562.555 727.322 583.764 720.08 603.938L732.237 616.353C739.487 623.525 745.244 632.064 749.172 641.476C753.101 650.888 755.123 660.986 755.123 671.185C755.123 681.384 753.101 691.482 749.172 700.893C745.244 710.305 739.487 718.845 732.237 726.017C725.064 733.268 716.525 739.024 707.113 742.953C697.701 746.881 687.603 748.904 677.404 748.904C667.205 748.904 657.108 746.881 647.696 742.953C638.284 739.024 629.744 733.268 622.572 726.017L531.271 634.716C524.02 627.544 518.264 619.004 514.335 609.592C510.407 600.18 508.384 590.083 508.384 579.884C508.384 569.685 510.407 559.587 514.335 550.175C518.264 540.763 524.02 532.224 531.271 525.052ZM604.208 634.716C614.295 644.803 630.848 644.803 640.936 634.716C665.161 610.455 678.767 577.571 678.767 543.286C678.767 509.001 665.161 476.117 640.936 451.856L549.376 360.296C525.114 336.071 492.231 322.464 457.946 322.464C423.66 322.464 390.777 336.071 366.515 360.296C342.29 384.557 328.684 417.441 328.684 451.726C328.684 486.011 342.29 518.895 366.515 543.157L405.053 581.694C404.794 560.486 408.157 539.277 415.399 518.844L403.242 506.688C395.992 499.515 390.236 490.976 386.307 481.564C382.378 472.152 380.356 462.054 380.356 451.856C380.356 441.657 382.378 431.559 386.307 422.147C390.236 412.735 395.992 404.196 403.242 397.023C410.415 389.772 418.954 384.016 428.366 380.088C437.778 376.159 447.876 374.136 458.075 374.136C468.274 374.136 478.371 376.159 487.783 380.088C497.195 384.016 505.735 389.772 512.907 397.023L604.208 488.324C611.459 495.497 617.215 504.036 621.144 513.448C625.072 522.86 627.095 532.958 627.095 543.157C627.095 553.355 625.072 563.453 621.144 572.865C617.215 582.277 611.459 590.816 604.208 597.989C601.696 600.343 599.694 603.187 598.325 606.346C596.956 609.504 596.25 612.91 596.25 616.353C596.25 619.795 596.956 623.201 598.325 626.36C599.694 629.518 601.696 632.362 604.208 634.716Z" fill="#AFAFAF"/>
</g>
<defs>
<clipPath id="clip0_40_198">
<rect width="478.112" height="478.112" fill="white" transform="matrix(1 0 0 -1 328.684 800.576)"/>
</clipPath>
</defs>
</svg>
