<svg width="863" height="863" viewBox="0 0 863 863" fill="none" xmlns="http://www.w3.org/2000/svg">
<g clip-path="url(#clip0_40_276)">
<path d="M431.5 863C669.811 863 863 669.811 863 431.5C863 193.189 669.811 0 431.5 0C193.189 0 0 193.189 0 431.5C0 669.811 193.189 863 431.5 863Z" fill="#1B92D1"/>
<path fill-rule="evenodd" clip-rule="evenodd" d="M601.799 225.385C607.816 222.854 614.399 221.981 620.867 222.856C627.334 223.733 633.449 226.326 638.573 230.368C643.699 234.408 647.646 239.749 650.007 245.834C652.367 251.919 653.053 258.526 651.993 264.965L596.786 599.837C591.431 632.139 555.988 650.663 526.365 634.574C501.585 621.113 464.779 600.373 431.674 578.733C415.122 567.9 364.418 533.213 370.649 508.531C376.004 487.426 461.2 408.12 509.885 360.97C528.994 342.446 520.28 331.759 497.713 348.798C441.678 391.105 351.712 455.441 321.966 473.552C295.725 489.519 282.045 492.247 265.687 489.519C235.843 484.554 208.167 476.861 185.577 467.491C155.053 454.833 156.538 412.867 185.553 400.646L601.799 225.385Z" fill="white"/>
</g>
<defs>
<clipPath id="clip0_40_276">
<rect width="863" height="863" fill="white"/>
</clipPath>
</defs>
</svg>
