<svg width="27" height="23" viewBox="0 0 27 23" fill="none" xmlns="http://www.w3.org/2000/svg">
<path d="M14.4613 1H11.9818C11.0612 1 10.3124 1.72521 10.3124 2.61685V20.2317C10.3124 21.1234 11.0612 21.8486 11.9818 21.8486H14.4613C15.382 21.8486 16.1307 21.1234 16.1307 20.2317V2.61685C16.1348 1.72521 15.382 1 14.4613 1ZM15.3942 20.2358C15.3942 20.7351 14.9769 21.1393 14.4613 21.1393H11.9818C11.4662 21.1393 11.0489 20.7351 11.0489 20.2358V2.61685C11.0489 2.11751 11.4663 1.71332 11.9818 1.71332H14.4613C14.9769 1.71332 15.3942 2.11754 15.3942 2.61685V20.2358ZM5.38206 7.49123H2.44026C1.64649 7.49123 1 8.11738 1 8.88616V20.4577C1 21.2265 1.64649 21.8526 2.44026 21.8526H5.38206C6.17583 21.8526 6.82232 21.2265 6.82232 20.4577V8.88616C6.82232 8.11738 6.17583 7.49123 5.38206 7.49123ZM6.08583 20.4577C6.08583 20.8342 5.77078 21.1393 5.38206 21.1393H2.44026C2.05155 21.1393 1.7365 20.8342 1.7365 20.4577V8.88616C1.7365 8.50968 2.05155 8.20455 2.44026 8.20455H5.38206C5.77078 8.20455 6.08583 8.50968 6.08583 8.88616V20.4577ZM23.8804 4.17029H21.1881C20.3248 4.17029 19.6251 4.84795 19.6251 5.68412V20.3349C19.6251 21.1711 20.3248 21.8487 21.1881 21.8487H23.8804C24.7437 21.8487 25.4434 21.1711 25.4434 20.3349V5.68817C25.4434 4.852 24.7437 4.17029 23.8804 4.17029ZM24.7069 20.3388C24.7069 20.7826 24.3345 21.1393 23.8804 21.1393H21.1881C20.7299 21.1393 20.3616 20.7786 20.3616 20.3388V5.68797C20.3616 5.24413 20.734 4.88749 21.1881 4.88749H23.8804C24.3387 4.88749 24.7069 5.24811 24.7069 5.68797V20.3388Z" stroke="white" stroke-width="1.2"/>
<path d="M6.08583 20.4577C6.08583 20.8342 5.77078 21.1393 5.38206 21.1393H2.44026C2.05155 21.1393 1.7365 20.8342 1.7365 20.4577V8.88616C1.7365 8.50968 2.05155 8.20455 2.44026 8.20455H5.38206C5.77078 8.20455 6.08583 8.50968 6.08583 8.88616V20.4577Z" stroke="white" stroke-width="1.2"/>
<path d="M15.3942 20.2358C15.3942 20.7351 14.9769 21.1393 14.4613 21.1393H11.9818C11.4662 21.1393 11.0489 20.7351 11.0489 20.2358V2.61685C11.0489 2.11751 11.4663 1.71332 11.9818 1.71332H14.4613C14.9769 1.71332 15.3942 2.11754 15.3942 2.61685V20.2358Z" stroke="white" stroke-width="1.2"/>
<path d="M24.7069 20.3388C24.7069 20.7826 24.3345 21.1393 23.8804 21.1393H21.1881C20.7299 21.1393 20.3616 20.7786 20.3616 20.3388V5.68797C20.3616 5.24413 20.734 4.88749 21.1881 4.88749H23.8804C24.3387 4.88749 24.7069 5.24811 24.7069 5.68797V20.3388Z" stroke="white" stroke-width="1.2"/>
</svg>
