<svg width="73" height="73" viewBox="0 0 73 73" fill="none" xmlns="http://www.w3.org/2000/svg">
<g clip-path="url(#clip0_46_8)">
<path d="M36.5 73C56.6584 73 73 56.6584 73 36.5C73 16.3416 56.6584 0 36.5 0C16.3416 0 0 16.3416 0 36.5C0 56.6584 16.3416 73 36.5 73Z" fill="black"/>
<path d="M52.8135 21.1825C49.7711 19.6958 46.518 18.6153 43.117 18C42.6993 18.7887 42.2113 19.8496 41.8749 20.6935C38.2596 20.1256 34.6775 20.1256 31.1286 20.6935C30.7922 19.8496 30.2932 18.7887 29.8718 18C26.4671 18.6153 23.2103 19.6997 20.1679 21.1904C14.0313 30.8757 12.3678 40.3205 13.1996 49.6312C17.2697 52.8057 21.2141 54.7342 25.0919 55.9961C26.0493 54.6198 26.9032 53.1567 27.6389 51.6148C26.2378 51.0588 24.8959 50.3726 23.628 49.576C23.9644 49.3157 24.2935 49.0436 24.6113 48.7636C32.3448 52.5416 40.7474 52.5416 48.3885 48.7636C48.7101 49.0436 49.0391 49.3157 49.3718 49.576C48.1001 50.3766 46.7546 51.0627 45.3536 51.6188C46.0892 53.1567 46.9394 54.6238 47.9005 56C51.7821 54.7381 55.7302 52.8097 59.8002 49.6312C60.7762 38.8378 58.133 29.4797 52.8135 21.1825ZM28.6925 43.9052C26.371 43.9052 24.4671 41.6416 24.4671 38.8851C24.4671 36.1285 26.3303 33.861 28.6925 33.861C31.0547 33.861 32.9585 36.1245 32.9178 38.8851C32.9215 41.6416 31.0547 43.9052 28.6925 43.9052ZM44.3073 43.9052C41.9858 43.9052 40.082 41.6416 40.082 38.8851C40.082 36.1285 41.9451 33.861 44.3073 33.861C46.6695 33.861 48.5734 36.1245 48.5327 38.8851C48.5327 41.6416 46.6695 43.9052 44.3073 43.9052Z" fill="#F2F2F2"/>
</g>
<defs>
<clipPath id="clip0_46_8">
<rect width="73" height="73" fill="white"/>
</clipPath>
</defs>
</svg>
