<svg width="25" height="23" viewBox="0 0 25 23" fill="none" xmlns="http://www.w3.org/2000/svg">
<path d="M13.397 0.822266C12.752 0.822266 12.164 1.16226 10.99 1.83926L4.55902 5.54525C3.45144 6.17063 2.52845 7.07713 1.88321 8.17325C1.23796 9.26937 0.89331 10.5163 0.884033 11.7882L0.884033 12.0242C0.893382 13.2945 1.23724 14.5399 1.881 15.635C2.52475 16.7301 3.44566 17.6362 4.55102 18.2622L8.574 20.5852C10.928 21.9452 12.105 22.6272 13.398 22.6272C14.69 22.6282 15.868 21.9492 18.223 20.5892L22.4739 18.1362C23.6509 17.4562 24.2379 17.1162 24.5609 16.5572C24.8839 15.9972 24.8849 15.3172 24.8839 13.9572V11.3272C24.8841 11.1448 24.8363 10.9655 24.7453 10.8073C24.6543 10.6492 24.5233 10.5177 24.3655 10.4263C24.2076 10.3348 24.0284 10.2864 23.846 10.286C23.6635 10.2857 23.4842 10.3333 23.3259 10.4242L14.598 15.4482C14.011 15.7852 13.718 15.9552 13.397 15.9552C13.074 15.9552 12.781 15.7872 12.193 15.4492L6.28901 12.0562C5.99201 11.8852 5.84301 11.8002 5.72401 11.7852C5.59252 11.7679 5.45899 11.7946 5.34428 11.8611C5.22957 11.9277 5.14016 12.0304 5.09002 12.1532C5.04502 12.2642 5.04502 12.4352 5.04702 12.7782C5.04902 13.0302 5.04702 13.1562 5.07202 13.2722C5.12502 13.5312 5.26102 13.7652 5.45901 13.9392C5.54801 14.0162 5.65701 14.0792 5.87501 14.2052L12.19 17.8552C12.779 18.1952 13.074 18.3652 13.397 18.3652C13.72 18.3652 14.014 18.1952 14.603 17.8562L22.3429 13.3872C22.5449 13.2712 22.6449 13.2152 22.7199 13.2572C22.7949 13.3012 22.7949 13.4172 22.7949 13.6492V14.8422C22.7949 15.1822 22.7959 15.3522 22.7149 15.4912C22.6349 15.6312 22.4879 15.7152 22.1929 15.8852L15.811 19.5702C14.633 20.2502 14.044 20.5902 13.398 20.5902C12.752 20.5902 12.162 20.2502 10.986 19.5682L5.01602 16.1162L4.97302 16.0912C4.35776 15.7316 3.84687 15.2178 3.49072 14.6006C3.13456 13.9833 2.94545 13.2839 2.94203 12.5712V11.4252C2.94232 11.0315 3.0459 10.6448 3.24244 10.3037C3.43897 9.96254 3.72158 9.67895 4.06202 9.48123C4.36317 9.30693 4.70493 9.21506 5.05288 9.21489C5.40084 9.21471 5.74269 9.30623 6.04401 9.48023L10.99 12.3382C12.164 13.0172 12.752 13.3572 13.397 13.3582C14.042 13.3582 14.63 13.0182 15.807 12.3412L23.2889 8.03524C23.4551 7.93957 23.5931 7.80181 23.6891 7.63582C23.7851 7.46983 23.8356 7.28148 23.8356 7.08974C23.8356 6.89801 23.7851 6.70966 23.6891 6.54367C23.5931 6.37768 23.4551 6.23991 23.2889 6.14425L15.804 1.83526C14.629 1.16026 14.042 0.822266 13.398 0.822266H13.397Z" fill="white"/>
</svg>
