<svg width="43" height="43" viewBox="0 0 43 43" fill="none" xmlns="http://www.w3.org/2000/svg">
<circle cx="21.5" cy="21.5" r="21.5" fill="black"/>
<path d="M22.0618 9.55957C21.3554 9.55957 20.7114 9.93193 19.4257 10.6734L12.3827 14.7321C11.1697 15.417 10.1588 16.4097 9.45218 17.6102C8.74553 18.8106 8.36807 20.1763 8.35791 21.5692V21.8277C8.36815 23.2188 8.74474 24.5827 9.44976 25.7821C10.1548 26.9814 11.1633 27.9738 12.3739 28.6594L16.7798 31.2034C19.3578 32.6929 20.6468 33.4398 22.0629 33.4398C23.4778 33.4409 24.768 32.6973 27.3471 31.2078L32.0027 28.5214C33.2917 27.7766 33.9345 27.4043 34.2883 26.7921C34.642 26.1788 34.6431 25.4341 34.642 23.9446V21.0643C34.6422 20.8645 34.5899 20.6681 34.4902 20.4949C34.3906 20.3218 34.2471 20.1778 34.0742 20.0776C33.9013 19.9774 33.7051 19.9245 33.5053 19.9241C33.3054 19.9237 33.109 19.9759 32.9357 20.0754L23.3771 25.5775C22.7342 25.9466 22.4133 26.1328 22.0618 26.1328C21.708 26.1328 21.3872 25.9488 20.7432 25.5786L14.2773 21.8627C13.952 21.6754 13.7889 21.5824 13.6585 21.5659C13.5145 21.5469 13.3683 21.5762 13.2427 21.6491C13.117 21.722 13.0191 21.8345 12.9642 21.969C12.9149 22.0905 12.9149 22.2778 12.9171 22.6534C12.9193 22.9294 12.9171 23.0674 12.9445 23.1945C13.0025 23.4781 13.1515 23.7344 13.3683 23.9249C13.4658 24.0093 13.5852 24.0783 13.8239 24.2162L20.7399 28.2136C21.385 28.586 21.708 28.7722 22.0618 28.7722C22.4155 28.7722 22.7375 28.586 23.3826 28.2147L31.8592 23.3204C32.0804 23.1934 32.1899 23.132 32.2721 23.178C32.3542 23.2262 32.3542 23.3533 32.3542 23.6073V24.9139C32.3542 25.2862 32.3553 25.4724 32.2666 25.6246C32.179 25.778 32.018 25.87 31.6949 26.0561L24.7055 30.0918C23.4154 30.8366 22.7704 31.2089 22.0629 31.2089C21.3554 31.2089 20.7092 30.8366 19.4213 30.0896L12.8832 26.3091L12.8361 26.2817C12.1623 25.8879 11.6027 25.3252 11.2127 24.6492C10.8226 23.9732 10.6155 23.2072 10.6118 22.4267V21.1717C10.6121 20.7405 10.7255 20.317 10.9408 19.9434C11.156 19.5698 11.4655 19.2592 11.8384 19.0427C12.1682 18.8518 12.5425 18.7512 12.9235 18.751C13.3046 18.7508 13.679 18.851 14.009 19.0416L19.4257 22.1716C20.7114 22.9152 21.3554 23.2875 22.0618 23.2886C22.7682 23.2886 23.4121 22.9163 24.7011 22.1748L32.8952 17.459C33.0772 17.3543 33.2284 17.2034 33.3335 17.0216C33.4386 16.8398 33.4939 16.6335 33.4939 16.4236C33.4939 16.2136 33.4386 16.0073 33.3335 15.8255C33.2284 15.6437 33.0772 15.4928 32.8952 15.3881L24.6979 10.669C23.411 9.92974 22.7682 9.55957 22.0629 9.55957H22.0618Z" fill="white"/>
</svg>
