<svg width="20" height="24" viewBox="0 0 20 24" fill="none" xmlns="http://www.w3.org/2000/svg">
<path d="M9.6543 0C10.9345 6.32172e-06 12.1622 0.508889 13.0674 1.41406C13.9725 2.31923 14.4814 3.54711 14.4814 4.82715V7.10742H15.6875C16.6476 7.10742 17.5691 7.48908 18.248 8.16797C18.9267 8.84682 19.3076 9.76762 19.3076 10.7275V20.3809C19.3076 21.3408 18.9268 22.2616 18.248 22.9404C17.5691 23.6193 16.6476 24.001 15.6875 24.001H3.62109C2.66097 24.001 1.73946 23.6193 1.06055 22.9404C0.381754 22.2616 4.79766e-05 21.3408 0 20.3809V10.7275C0 9.76761 0.38184 8.84682 1.06055 8.16797C1.73946 7.48908 2.66097 7.10742 3.62109 7.10742H4.82715V4.82715C4.82715 3.5471 5.33608 2.31923 6.24121 1.41406C7.14643 0.508883 8.37413 0 9.6543 0ZM9.6543 9.00098C9.65257 9.0479 9.51578 12.5986 7.7627 14.1094C6.27223 15.3938 2.69752 15.9938 2.6543 16.001C2.70536 16.0095 6.27389 16.6086 7.7627 17.8916C9.51579 19.4024 9.65258 22.9531 9.6543 23C9.65609 22.9514 9.79227 19.4021 11.5449 17.8916C13.0445 16.5993 16.6543 16 16.6543 16C16.6543 16 13.0445 15.4017 11.5449 14.1094C9.79227 12.5989 9.65609 9.04963 9.6543 9.00098ZM9.6543 2.28027C8.99706 2.29922 8.3742 2.57848 7.92188 3.05566C7.46964 3.53283 7.22498 4.16993 7.24121 4.82715V7.10742H12.0674V4.82715C12.0836 4.16994 11.8389 3.53283 11.3867 3.05566C10.9344 2.57849 10.3115 2.29923 9.6543 2.28027Z" fill="#F3F0FD"/>
</svg>
