<svg width="43" height="43" viewBox="0 0 43 43" fill="none" xmlns="http://www.w3.org/2000/svg">
<circle cx="21.5" cy="21.5" r="21.5" fill="black"/>
<path fill-rule="evenodd" clip-rule="evenodd" d="M29.9853 11.2301C30.2851 11.104 30.6131 11.0605 30.9354 11.1041C31.2576 11.1478 31.5623 11.277 31.8176 11.4784C32.073 11.6797 32.2697 11.9458 32.3873 12.249C32.5049 12.5522 32.5391 12.8814 32.4863 13.2022L29.7355 29.8876C29.4687 31.4971 27.7027 32.4201 26.2267 31.6184C24.992 30.9477 23.1581 29.9143 21.5086 28.8361C20.6839 28.2963 18.1575 26.568 18.468 25.3382C18.7348 24.2866 22.9798 20.3351 25.4056 17.9858C26.3577 17.0628 25.9235 16.5303 24.7991 17.3793C22.0071 19.4873 17.5244 22.6929 16.0423 23.5953C14.7348 24.3909 14.0532 24.5268 13.2381 24.3909C11.7511 24.1435 10.3721 23.7602 9.24657 23.2933C7.72564 22.6626 7.79963 20.5716 9.24536 19.9627L29.9853 11.2301Z" fill="white"/>
</svg>
