<svg width="25" height="24" viewBox="0 0 25 24" fill="none" xmlns="http://www.w3.org/2000/svg">
<path d="M8.39294 13.3785C8.74394 17.1148 10.1684 20.6725 12.5 23.6354C14.8316 20.6725 16.2561 17.1148 16.6071 13.3785H8.39294Z" fill="white"/>
<path d="M12.5 0.364635C10.168 3.3277 8.74398 6.88622 8.39294 10.6229H16.6071C16.256 6.88622 14.832 3.3277 12.5 0.364635Z" fill="white"/>
<path d="M9.32109 0C4.34986 1.2761 0.577441 5.47451 0 10.6229H5.58255C5.89592 6.81585 7.1875 3.16143 9.32109 0Z" fill="white"/>
<path d="M19.4174 13.3785C19.1041 17.1854 17.811 20.8386 15.6775 24C20.6492 22.7242 24.4225 18.5272 25 13.3785H19.4174Z" fill="white"/>
<path d="M15.6775 0C17.8114 3.16157 19.1041 6.81561 19.4174 10.6229H25C24.4225 5.47407 20.6494 1.27571 15.6775 0Z" fill="white"/>
<path d="M0 13.3785C0.577428 18.5267 4.35002 22.7238 9.32109 24C7.18787 20.8388 5.89589 17.1851 5.58255 13.3785H0Z" fill="white"/>
</svg>
