<svg width="24" height="24" viewBox="0 0 35 33" fill="none" xmlns="http://www.w3.org/2000/svg">
<path d="M32.8032 1L19.6053 10.7025L22.0615 4.9254L32.8032 1Z" fill="#E17726" stroke="#E17726" stroke-width="0.25" stroke-linecap="round" stroke-linejoin="round"/>
<path d="M2.19922 1L15.3093 10.7915L13.0051 4.92541L2.19922 1Z" fill="#E27625" stroke="#E27625" stroke-width="0.25" stroke-linecap="round" stroke-linejoin="round"/>
<path d="M28.0046 23.8634L24.502 29.3628L32.0097 31.4431L34.1779 23.9881L28.0046 23.8634Z" fill="#E27625" stroke="#E27625" stroke-width="0.25" stroke-linecap="round" stroke-linejoin="round"/>
<path d="M0.852539 23.9881L3.00856 31.4431L10.5163 29.3628L7.03589 23.8634L0.852539 23.9881Z" fill="#E27625" stroke="#E27625" stroke-width="0.25" stroke-linecap="round" stroke-linejoin="round"/>
<path d="M10.1301 14.7148L8.05273 17.9391L15.4717 18.2773L15.2223 10.2129L10.1301 14.7148Z" fill="#E27625" stroke="#E27625" stroke-width="0.25" stroke-linecap="round" stroke-linejoin="round"/>
<path d="M24.8687 14.7144L19.6876 10.1235L19.6055 18.2769L27.0244 17.9387L24.8687 14.7144Z" fill="#E27625" stroke="#E27625" stroke-width="0.25" stroke-linecap="round" stroke-linejoin="round"/>
<path d="M10.5156 29.363L15.0524 27.1183L11.1542 24.0293L10.5156 29.363Z" fill="#E27625" stroke="#E27625" stroke-width="0.25" stroke-linecap="round" stroke-linejoin="round"/>
<path d="M19.9453 27.1183L24.5026 29.363L23.8434 24.0293L19.9453 27.1183Z" fill="#E27625" stroke="#E27625" stroke-width="0.25" stroke-linecap="round" stroke-linejoin="round"/>
<path d="M24.5026 29.3628L19.9453 27.1182L20.3091 30.0936L20.2681 31.3541L24.5026 29.3628Z" fill="#D5BFB2" stroke="#D5BFB2" stroke-width="0.25" stroke-linecap="round" stroke-linejoin="round"/>
<path d="M10.5156 29.3628L14.7706 31.3541L14.7501 30.0936L15.0524 27.1182L10.5156 29.3628Z" fill="#D5BFB2" stroke="#D5BFB2" stroke-width="0.25" stroke-linecap="round" stroke-linejoin="round"/>
<path d="M14.8444 22.0898L11.0742 20.9639L13.7452 19.7441L14.8444 22.0898Z" fill="#233447" stroke="#233447" stroke-width="0.25" stroke-linecap="round" stroke-linejoin="round"/>
<path d="M20.1543 22.0898L21.2535 19.7441L23.9451 20.9639L20.1543 22.0898Z" fill="#233447" stroke="#233447" stroke-width="0.25" stroke-linecap="round" stroke-linejoin="round"/>
<path d="M10.5164 29.3628L11.1961 23.8634L7.03613 23.9881L10.5164 29.3628Z" fill="#CC6228" stroke="#CC6228" stroke-width="0.25" stroke-linecap="round" stroke-linejoin="round"/>
<path d="M23.8047 23.8634L24.5048 29.3628L28.0054 23.9881L23.8047 23.8634Z" fill="#CC6228" stroke="#CC6228" stroke-width="0.25" stroke-linecap="round" stroke-linejoin="round"/>
<path d="M27.0249 17.9395L19.6055 18.2776L20.1561 22.0896L21.2554 19.7438L23.9469 20.9637L27.0249 17.9395Z" fill="#CC6228" stroke="#CC6228" stroke-width="0.25" stroke-linecap="round" stroke-linejoin="round"/>
<path d="M11.0731 20.9637L13.7441 19.7438L14.8433 22.0896L15.4717 18.2776L8.05273 17.9395L11.0731 20.9637Z" fill="#CC6228" stroke="#CC6228" stroke-width="0.25" stroke-linecap="round" stroke-linejoin="round"/>
<path d="M8.05273 17.9395L11.1541 24.0296L11.0731 20.9637L8.05273 17.9395Z" fill="#E27525" stroke="#E27525" stroke-width="0.25" stroke-linecap="round" stroke-linejoin="round"/>
<path d="M23.9447 20.9637L23.8433 24.0296L27.0244 17.9395L23.9447 20.9637Z" fill="#E27525" stroke="#E27525" stroke-width="0.25" stroke-linecap="round" stroke-linejoin="round"/>
<path d="M15.4734 18.2773L14.8445 22.0893L15.6403 26.6328L15.7634 20.6186L15.4734 18.2773Z" fill="#E27525" stroke="#E27525" stroke-width="0.25" stroke-linecap="round" stroke-linejoin="round"/>
<path d="M19.6064 18.2773L19.3359 20.6082L19.4385 26.6328L20.1569 22.0893L19.6064 18.2773Z" fill="#E27525" stroke="#E27525" stroke-width="0.25" stroke-linecap="round" stroke-linejoin="round"/>
<path d="M20.157 22.0898L19.4385 26.6333L19.9469 27.1184L23.8451 24.0293L23.9465 20.9639L20.157 22.0898Z" fill="#F5841F" stroke="#F5841F" stroke-width="0.25" stroke-linecap="round" stroke-linejoin="round"/>
<path d="M11.0742 20.9639L11.1551 24.0293L15.0534 27.1184L15.6413 26.6333L14.8434 22.0898L11.0742 20.9639Z" fill="#F5841F" stroke="#F5841F" stroke-width="0.25" stroke-linecap="round" stroke-linejoin="round"/>
<path d="M20.2686 31.3542L20.3096 30.0936L19.9873 29.8124H15.0118L14.7501 30.0936L14.7706 31.3542L10.5156 29.3629L11.9785 30.5627L14.9375 32.5H20.0421L23.0216 30.5627L24.5026 29.3629L20.2686 31.3542Z" fill="#C0AC9D" stroke="#C0AC9D" stroke-width="0.25" stroke-linecap="round" stroke-linejoin="round"/>
<path d="M19.9453 27.1179L19.4369 26.6328H15.6418L15.0524 27.1179L14.75 30.0934L15.0118 29.8122H19.9873L20.3095 30.0934L19.9453 27.1179Z" fill="#161616" stroke="#161616" stroke-width="0.25" stroke-linecap="round" stroke-linejoin="round"/>
<path d="M33.1885 11.2461L34.3078 5.87564L32.8027 1L19.9453 10.2978L24.8689 14.7146L31.7871 16.7059L33.3295 14.8885L32.6498 14.3934L33.7288 13.4033L32.8846 12.7736L33.9636 11.939L33.1885 11.2461Z" fill="#763E1A" stroke="#763E1A" stroke-width="0.25" stroke-linecap="round" stroke-linejoin="round"/>
<path d="M0.691406 5.87564L1.82109 11.2461L1.0255 11.939L2.11487 12.7736L1.27068 13.4033L2.34967 14.3934L1.67001 14.8885L3.22283 16.7059L10.1309 14.7146L15.0545 10.2978L2.19714 1L0.691406 5.87564Z" fill="#763E1A" stroke="#763E1A" stroke-width="0.25" stroke-linecap="round" stroke-linejoin="round"/>
<path d="M31.7868 16.706L24.8691 14.7148L27.0248 17.939L23.8438 24.0291L27.9993 23.988H34.1726L31.7868 16.706Z" fill="#F5841F" stroke="#F5841F" stroke-width="0.25" stroke-linecap="round" stroke-linejoin="round"/>
<path d="M10.1309 14.7148L3.22324 16.706L0.857422 23.988H7.01032L11.1558 24.0291L7.97477 17.939L10.1309 14.7148Z" fill="#F5841F" stroke="#F5841F" stroke-width="0.25" stroke-linecap="round" stroke-linejoin="round"/>
<path d="M19.6067 18.2769L19.9454 10.2975L22.0621 4.92505H13.0042L15.0539 10.2975L15.4736 18.2769L15.6379 20.629V26.6328H19.4329L19.464 20.629L19.6067 18.2769Z" fill="#F5841F" stroke="#F5841F" stroke-width="0.25" stroke-linecap="round" stroke-linejoin="round"/>
</svg> 