<svg width="770" height="645" viewBox="0 0 770 645" fill="none" xmlns="http://www.w3.org/2000/svg">
<path fill-rule="evenodd" clip-rule="evenodd" d="M0 174.466C0 78.111 78.111 0 174.466 0H357.231V65.1241H174.466C114.078 65.1241 65.1241 114.078 65.1241 174.466C65.1241 234.853 114.078 283.807 174.466 283.807H195.8V348.931H174.466C78.1109 348.931 0 270.82 0 174.466Z" fill="url(#paint0_linear_20_168)"/>
<path fill-rule="evenodd" clip-rule="evenodd" d="M65.1241 520.739C65.1241 553.008 91.2839 579.168 123.554 579.168L351.208 579.168L351.208 644.292L123.554 644.292C55.3168 644.292 -2.85836e-06 588.975 0 520.739L65.1241 520.739Z" fill="url(#paint1_linear_20_168)"/>
<path fill-rule="evenodd" clip-rule="evenodd" d="M702.946 123.557C702.946 91.2869 676.786 65.1271 644.517 65.1271L416.863 65.1271L416.863 0.00297269L644.517 0.00297326C712.754 0.00297265 768.07 55.3198 768.07 123.557L702.946 123.557Z" fill="url(#paint2_linear_20_168)"/>
<path fill-rule="evenodd" clip-rule="evenodd" d="M578.898 288.865H591.923C689.873 288.865 769.277 368.269 769.277 466.219C769.277 564.17 689.873 643.574 591.923 643.574H418.672V578.45H591.923C653.906 578.45 704.153 528.202 704.153 466.219C704.153 404.236 653.906 353.989 591.923 353.989H578.898V288.865Z" fill="url(#paint3_linear_20_168)"/>
<path d="M385.5 130L410.793 215.265C421.071 249.912 445.753 278.448 478.532 293.582L539 321.5L478.532 349.418C445.753 364.552 421.071 393.088 410.793 427.735L385.5 513L360.207 427.735C349.929 393.088 325.247 364.552 292.468 349.418L232 321.5L292.468 293.582C325.247 278.448 349.929 249.912 360.207 215.265L385.5 130Z" fill="url(#paint4_linear_20_168)"/>
<defs>
<linearGradient id="paint0_linear_20_168" x1="178.616" y1="0" x2="178.616" y2="348.931" gradientUnits="userSpaceOnUse">
<stop stop-color="white"/>
<stop offset="1" stop-color="#999999"/>
</linearGradient>
<linearGradient id="paint1_linear_20_168" x1="175.604" y1="520.739" x2="175.604" y2="644.292" gradientUnits="userSpaceOnUse">
<stop stop-color="white"/>
<stop offset="1" stop-color="#999999"/>
</linearGradient>
<linearGradient id="paint2_linear_20_168" x1="592.467" y1="123.557" x2="592.467" y2="0.00296469" gradientUnits="userSpaceOnUse">
<stop stop-color="white"/>
<stop offset="1" stop-color="#999999"/>
</linearGradient>
<linearGradient id="paint3_linear_20_168" x1="593.975" y1="288.865" x2="593.975" y2="643.574" gradientUnits="userSpaceOnUse">
<stop stop-color="white"/>
<stop offset="1" stop-color="#999999"/>
</linearGradient>
<linearGradient id="paint4_linear_20_168" x1="385.5" y1="130" x2="385.5" y2="513" gradientUnits="userSpaceOnUse">
<stop stop-color="white"/>
<stop offset="1" stop-color="#999999"/>
</linearGradient>
</defs>
</svg>
