<svg width="770" height="645" viewBox="0 0 770 645" fill="none" xmlns="http://www.w3.org/2000/svg">
<path fill-rule="evenodd" clip-rule="evenodd" d="M0 174.466C0 78.111 78.111 0 174.466 0H357.231V65.1241H174.466C114.078 65.1241 65.1241 114.078 65.1241 174.466C65.1241 234.853 114.078 283.807 174.466 283.807H195.8V348.931H174.466C78.1109 348.931 0 270.82 0 174.466Z" fill="url(#paint0_linear_20_184)"/>
<path fill-rule="evenodd" clip-rule="evenodd" d="M65.1241 520.739C65.1241 553.008 91.2839 579.168 123.554 579.168L351.208 579.168V644.292H123.554C55.3168 644.292 -2.85836e-06 588.975 0 520.739H65.1241Z" fill="url(#paint1_linear_20_184)"/>
<path fill-rule="evenodd" clip-rule="evenodd" d="M702.946 123.557C702.946 91.2868 676.787 65.127 644.517 65.127H416.863V0.00291165L644.517 0.00291222C712.754 0.00291161 768.07 55.3198 768.07 123.557L702.946 123.557Z" fill="url(#paint2_linear_20_184)"/>
<path fill-rule="evenodd" clip-rule="evenodd" d="M578.898 288.865H591.923C689.873 288.865 769.277 368.269 769.277 466.219C769.277 564.17 689.873 643.574 591.923 643.574H418.672V578.45H591.923C653.906 578.45 704.153 528.202 704.153 466.219C704.153 404.236 653.906 353.989 591.923 353.989H578.898V288.865Z" fill="url(#paint3_linear_20_184)"/>
<path d="M385.5 130L410.793 215.265C421.071 249.912 445.753 278.448 478.532 293.582L539 321.5L478.532 349.418C445.753 364.552 421.071 393.088 410.793 427.735L385.5 513L360.207 427.735C349.929 393.088 325.247 364.552 292.468 349.418L232 321.5L292.468 293.582C325.247 278.448 349.929 249.912 360.207 215.265L385.5 130Z" fill="url(#paint4_linear_20_184)"/>
<defs>
<linearGradient id="paint0_linear_20_184" x1="59.6324" y1="-6.68696e-06" x2="709.645" y2="644.292" gradientUnits="userSpaceOnUse">
<stop stop-color="#AC78FD"/>
<stop offset="1" stop-color="#5616BC"/>
</linearGradient>
<linearGradient id="paint1_linear_20_184" x1="59.6324" y1="-6.68696e-06" x2="709.645" y2="644.292" gradientUnits="userSpaceOnUse">
<stop stop-color="#AC78FD"/>
<stop offset="1" stop-color="#5616BC"/>
</linearGradient>
<linearGradient id="paint2_linear_20_184" x1="59.6324" y1="-6.68696e-06" x2="709.645" y2="644.292" gradientUnits="userSpaceOnUse">
<stop stop-color="#AC78FD"/>
<stop offset="1" stop-color="#5616BC"/>
</linearGradient>
<linearGradient id="paint3_linear_20_184" x1="59.6324" y1="-6.68696e-06" x2="709.645" y2="644.292" gradientUnits="userSpaceOnUse">
<stop stop-color="#AC78FD"/>
<stop offset="1" stop-color="#5616BC"/>
</linearGradient>
<linearGradient id="paint4_linear_20_184" x1="59.6324" y1="-6.68696e-06" x2="709.645" y2="644.292" gradientUnits="userSpaceOnUse">
<stop stop-color="#AC78FD"/>
<stop offset="1" stop-color="#5616BC"/>
</linearGradient>
</defs>
</svg>
