<svg width="188" height="29" viewBox="0 0 188 29" fill="none" xmlns="http://www.w3.org/2000/svg">
<path fill-rule="evenodd" clip-rule="evenodd" d="M0.25 8.0686C0.25 3.87256 3.65157 0.470985 7.84762 0.470985H15.8067V3.30701H7.84762C5.21786 3.30701 3.08602 5.43885 3.08602 8.0686C3.08602 10.6984 5.21786 12.8302 7.84762 12.8302H8.77669V15.6662H7.84762C3.65157 15.6662 0.25 12.2647 0.25 8.0686Z" fill="white"/>
<path fill-rule="evenodd" clip-rule="evenodd" d="M3.08602 23.1487C3.08602 24.5539 4.22522 25.6931 5.6305 25.6931L15.5444 25.6931L15.5444 28.5292L5.6305 28.5292C2.65893 28.5292 0.25 26.1202 0.25 23.1487L3.08602 23.1487Z" fill="white"/>
<path fill-rule="evenodd" clip-rule="evenodd" d="M30.8622 5.85122C30.8622 4.44594 29.723 3.30673 28.3177 3.30673L18.4039 3.30673L18.4039 0.470713L28.3177 0.470713C31.2893 0.470713 33.6982 2.87965 33.6982 5.85122L30.8622 5.85122Z" fill="white"/>
<path fill-rule="evenodd" clip-rule="evenodd" d="M25.4595 13.051H26.0267C30.2922 13.051 33.7501 16.5089 33.7501 20.7744C33.7501 25.0399 30.2922 28.4978 26.0267 28.4978H18.4819V25.6618H26.0267C28.7259 25.6618 30.914 23.4737 30.914 20.7744C30.914 18.0752 28.7259 15.887 26.0267 15.887H25.4595V13.051Z" fill="white"/>
<path d="M17.0284 5.71607L18.1855 9.61152C18.6556 11.1944 19.7848 12.4982 21.2843 13.1896L24.0505 14.465L21.2843 15.7405C19.7848 16.4319 18.6556 17.7356 18.1855 19.3185L17.0284 23.214L15.8713 19.3185C15.4012 17.7356 14.2721 16.4319 12.7725 15.7405L10.0063 14.465L12.7725 13.1896C14.2721 12.4982 15.4012 11.1944 15.8713 9.61152L17.0284 5.71607Z" fill="white"/>
<path d="M64.014 5.2C64.366 5.2 64.542 5.376 64.542 5.728V8.008C64.542 8.36 64.366 8.536 64.014 8.536H51.99C51.526 8.536 51.198 8.656 51.006 8.896C50.814 9.136 50.718 9.464 50.718 9.88V10.696C50.718 11.592 51.134 12.04 51.966 12.04H60.966C62.358 12.04 63.406 12.4 64.11 13.12C64.814 13.824 65.166 14.84 65.166 16.168V18.088C65.166 19.256 64.822 20.2 64.134 20.92C63.446 21.64 62.374 22 60.918 22H47.622C47.254 22 47.07 21.824 47.07 21.472V19.192C47.07 18.84 47.254 18.664 47.622 18.664H60.222C60.686 18.664 61.014 18.544 61.206 18.304C61.398 18.064 61.494 17.736 61.494 17.32V16.336C61.494 15.44 61.078 14.992 60.246 14.992H51.246C49.854 14.992 48.806 14.64 48.102 13.936C47.398 13.216 47.046 12.192 47.046 10.864V9.112C47.046 7.944 47.39 7 48.078 6.28C48.766 5.56 49.838 5.2 51.294 5.2H64.014ZM69.4481 8.824V5.656C69.4481 5.304 69.6241 5.128 69.9761 5.128H72.3521C72.7041 5.128 72.8801 5.304 72.8801 5.656V8.824H77.0801C77.3681 8.824 77.5121 8.968 77.5121 9.256V11.224C77.5121 11.512 77.3681 11.656 77.0801 11.656H72.8801V17.224C72.8801 17.896 73.0161 18.392 73.2881 18.712C73.5601 19.016 74.0961 19.168 74.8961 19.168H77.2241C77.5121 19.168 77.6561 19.312 77.6561 19.6V21.568C77.6561 21.856 77.5121 22 77.2241 22H74.3201C73.3601 22 72.5681 21.912 71.9441 21.736C71.3201 21.56 70.8161 21.28 70.4321 20.896C70.0641 20.512 69.8081 20.016 69.6641 19.408C69.5201 18.8 69.4481 18.072 69.4481 17.224V11.656H67.1681C66.8801 11.656 66.7361 11.512 66.7361 11.224V9.256C66.7361 8.968 66.8801 8.824 67.1681 8.824H69.4481ZM90.2618 8.824C91.3338 8.824 92.2378 8.92 92.9738 9.112C93.7098 9.288 94.2938 9.576 94.7258 9.976C95.1738 10.36 95.4938 10.864 95.6858 11.488C95.8778 12.096 95.9738 12.832 95.9738 13.696V20.08C95.9738 20.464 95.9418 20.784 95.8778 21.04C95.8298 21.28 95.7338 21.472 95.5898 21.616C95.4618 21.76 95.2858 21.864 95.0618 21.928C94.8378 21.976 94.5498 22 94.1978 22H82.7738C82.0698 22 81.4778 21.936 80.9978 21.808C80.5338 21.664 80.1578 21.456 79.8698 21.184C79.5818 20.912 79.3738 20.56 79.2458 20.128C79.1338 19.696 79.0778 19.184 79.0778 18.592V17.44C79.0778 16.944 79.1338 16.504 79.2458 16.12C79.3738 15.72 79.5818 15.384 79.8698 15.112C80.1578 14.84 80.5338 14.64 80.9978 14.512C81.4778 14.368 82.0698 14.296 82.7738 14.296H92.5418V13.84C92.5418 13.456 92.5018 13.128 92.4218 12.856C92.3418 12.584 92.2058 12.368 92.0138 12.208C91.8218 12.032 91.5578 11.904 91.2218 11.824C90.8858 11.744 90.4538 11.704 89.9258 11.704H79.8938C79.6058 11.704 79.4618 11.56 79.4618 11.272V9.256C79.4618 8.968 79.6058 8.824 79.8938 8.824H90.2618ZM91.8458 19.36C92.1018 19.36 92.2778 19.304 92.3738 19.192C92.4858 19.064 92.5418 18.848 92.5418 18.544V16.432H83.7578C83.2618 16.432 82.9098 16.536 82.7018 16.744C82.5098 16.936 82.4138 17.224 82.4138 17.608V18.112C82.4138 18.544 82.5098 18.864 82.7018 19.072C82.9098 19.264 83.2618 19.36 83.7578 19.36H91.8458ZM110.903 8.824C111.191 8.824 111.335 8.968 111.335 9.256V11.272C111.335 11.56 111.191 11.704 110.903 11.704H104.519C104.007 11.704 103.583 11.752 103.247 11.848C102.911 11.928 102.639 12.072 102.431 12.28C102.239 12.472 102.103 12.744 102.023 13.096C101.943 13.432 101.903 13.848 101.903 14.344V21.472C101.903 21.824 101.727 22 101.375 22H99.0233C98.6553 22 98.4713 21.824 98.4713 21.472V13.696C98.4713 12.832 98.5673 12.096 98.7593 11.488C98.9513 10.864 99.2633 10.36 99.6953 9.976C100.143 9.576 100.727 9.288 101.447 9.112C102.183 8.92 103.095 8.824 104.183 8.824H110.903ZM125.478 8.824C126.566 8.824 127.47 8.92 128.19 9.112C128.926 9.288 129.518 9.568 129.966 9.952C130.414 10.336 130.726 10.84 130.902 11.464C131.094 12.072 131.19 12.808 131.19 13.672V22.408C131.19 23.288 131.094 24.032 130.902 24.64C130.726 25.264 130.414 25.768 129.966 26.152C129.518 26.552 128.926 26.84 128.19 27.016C127.47 27.208 126.566 27.304 125.478 27.304H114.174C113.886 27.304 113.742 27.16 113.742 26.872V24.856C113.742 24.568 113.886 24.424 114.174 24.424H125.142C125.67 24.424 126.102 24.376 126.438 24.28C126.774 24.2 127.038 24.056 127.23 23.848C127.438 23.656 127.582 23.384 127.662 23.032C127.742 22.696 127.782 22.272 127.782 21.76V21.136H118.758C117.67 21.136 116.758 21.048 116.022 20.872C115.302 20.68 114.718 20.392 114.27 20.008C113.838 19.608 113.526 19.104 113.334 18.496C113.142 17.872 113.046 17.12 113.046 16.24V13.72C113.046 12.84 113.142 12.096 113.334 11.488C113.526 10.864 113.838 10.36 114.27 9.976C114.718 9.576 115.302 9.288 116.022 9.112C116.758 8.92 117.67 8.824 118.758 8.824H125.478ZM116.478 16.216C116.478 16.632 116.518 16.984 116.598 17.272C116.678 17.544 116.814 17.776 117.006 17.968C117.214 18.144 117.486 18.272 117.822 18.352C118.158 18.432 118.582 18.472 119.094 18.472H127.782V13.984C127.782 13.136 127.598 12.536 127.23 12.184C126.878 11.832 126.182 11.656 125.142 11.656H119.094C118.582 11.656 118.158 11.696 117.822 11.776C117.486 11.856 117.214 11.992 117.006 12.184C116.814 12.36 116.678 12.592 116.598 12.88C116.518 13.168 116.478 13.512 116.478 13.912V16.216ZM137.072 4C137.424 4 137.6 4.176 137.6 4.528V21.472C137.6 21.824 137.424 22 137.072 22H134.72C134.368 22 134.192 21.824 134.192 21.472V4.528C134.192 4.176 134.368 4 134.72 4H137.072ZM152.925 8.824C153.997 8.824 154.901 8.92 155.637 9.112C156.373 9.288 156.957 9.576 157.389 9.976C157.837 10.36 158.157 10.864 158.349 11.488C158.541 12.096 158.637 12.832 158.637 13.696V17.152C158.637 18.016 158.541 18.76 158.349 19.384C158.157 19.992 157.837 20.496 157.389 20.896C156.957 21.28 156.373 21.56 155.637 21.736C154.901 21.912 153.997 22 152.925 22H146.133C145.045 22 144.133 21.912 143.397 21.736C142.677 21.56 142.093 21.28 141.645 20.896C141.213 20.496 140.901 19.992 140.709 19.384C140.517 18.76 140.421 18.016 140.421 17.152V13.696C140.421 12.832 140.517 12.096 140.709 11.488C140.901 10.864 141.213 10.36 141.645 9.976C142.093 9.576 142.677 9.288 143.397 9.112C144.133 8.92 145.045 8.824 146.133 8.824H152.925ZM143.853 16.552C143.853 17.064 143.893 17.488 143.973 17.824C144.053 18.16 144.189 18.432 144.381 18.64C144.589 18.832 144.861 18.976 145.197 19.072C145.533 19.152 145.957 19.192 146.469 19.192H152.589C153.117 19.192 153.549 19.152 153.885 19.072C154.221 18.976 154.485 18.832 154.677 18.64C154.885 18.432 155.029 18.16 155.109 17.824C155.189 17.488 155.229 17.064 155.229 16.552V14.272C155.229 13.776 155.189 13.36 155.109 13.024C155.029 12.688 154.885 12.416 154.677 12.208C154.485 12 154.221 11.856 153.885 11.776C153.549 11.696 153.117 11.656 152.589 11.656H146.469C145.957 11.656 145.533 11.696 145.197 11.776C144.861 11.856 144.589 12 144.381 12.208C144.189 12.416 144.053 12.688 143.973 13.024C143.893 13.36 143.853 13.776 143.853 14.272V16.552ZM163.091 8.824C163.379 8.824 163.563 8.952 163.643 9.208L166.739 19.072C166.787 19.184 166.867 19.24 166.979 19.24H167.075C167.219 19.24 167.299 19.184 167.315 19.072L170.555 9.976C170.715 9.544 170.899 9.248 171.107 9.088C171.331 8.912 171.659 8.824 172.091 8.824H174.947C175.379 8.824 175.699 8.912 175.907 9.088C176.131 9.248 176.323 9.544 176.483 9.976L179.699 19.072C179.715 19.184 179.795 19.24 179.939 19.24H180.035C180.147 19.24 180.227 19.184 180.275 19.072L183.395 9.208C183.443 8.952 183.627 8.824 183.947 8.824H186.659C186.867 8.824 186.995 8.88 187.043 8.992C187.107 9.088 187.115 9.224 187.067 9.4L183.419 20.512C183.227 21.12 182.995 21.52 182.723 21.712C182.467 21.904 182.083 22 181.571 22H178.547C178.131 22 177.811 21.896 177.587 21.688C177.363 21.464 177.147 21.072 176.939 20.512L173.771 11.752C173.739 11.656 173.667 11.608 173.555 11.608H173.411C173.283 11.608 173.211 11.656 173.195 11.752L170.051 20.512C169.843 21.072 169.627 21.464 169.403 21.688C169.179 21.896 168.859 22 168.443 22H165.419C164.907 22 164.515 21.904 164.243 21.712C163.987 21.52 163.763 21.12 163.571 20.512L159.971 9.4C159.923 9.224 159.923 9.088 159.971 8.992C160.019 8.88 160.155 8.824 160.379 8.824H163.091Z" fill="white"/>
</svg>
