<svg width="512" height="512" viewBox="0 0 512 512" fill="none" xmlns="http://www.w3.org/2000/svg">
<path fill-rule="evenodd" clip-rule="evenodd" d="M0 157.235C0 93.1647 51.9387 41.226 116.009 41.226H237.535V84.5293H116.009C75.8545 84.5293 43.3033 117.08 43.3033 157.235C43.3033 197.388 75.8545 229.939 116.009 229.939H130.194V273.242H116.009C51.9387 273.242 0 221.304 0 157.235Z" fill="black"/>
<path fill-rule="evenodd" clip-rule="evenodd" d="M43.3033 387.484C43.3033 408.94 60.6979 426.335 82.1554 426.335H233.531V469.638H82.1554C36.7821 469.638 -1.90062e-06 432.856 0 387.484H43.3033Z" fill="black"/>
<path fill-rule="evenodd" clip-rule="evenodd" d="M467.413 123.383C467.413 101.926 450.019 84.5312 428.562 84.5312H277.187V41.2279H428.562C473.935 41.2279 510.717 78.01 510.717 123.383H467.413Z" fill="black"/>
<path fill-rule="evenodd" clip-rule="evenodd" d="M384.93 233.302H393.59C458.721 233.302 511.519 286.101 511.519 351.231C511.519 416.362 458.721 469.161 393.59 469.161H278.39V425.858H393.59C434.805 425.858 468.216 392.446 468.216 351.231C468.216 310.017 434.805 276.606 393.59 276.606H384.93V233.302Z" fill="black"/>
<path d="M256.332 127.668L273.151 184.363C279.985 207.401 296.397 226.376 318.193 236.439L358.4 255.003L318.193 273.566C296.397 283.629 279.985 302.604 273.151 325.642L256.332 382.338L239.514 325.642C232.68 302.604 216.268 283.629 194.472 273.566L154.265 255.003L194.472 236.439C216.268 226.376 232.68 207.401 239.514 184.363L256.332 127.668Z" fill="black"/>
</svg>
