<svg width="120" height="21" viewBox="0 0 120 21" fill="none" xmlns="http://www.w3.org/2000/svg">
<g style="mix-blend-mode:overlay">
<mask id="path-1-outside-1_19_234" maskUnits="userSpaceOnUse" x="1.18753" y="4.94444" width="116.613" height="10.6852" fill="black">
<rect fill="white" x="1.18753" y="4.94444" width="116.613" height="10.6852"/>
<path d="M7.60519 5.25732H16.7643L16.5201 6.25581H7.59117C6.62464 6.25581 5.70968 6.98604 5.48375 7.91002C5.25783 8.83399 5.81569 9.56423 6.78222 9.56423H13.3485C14.8827 9.56423 15.7834 10.7117 15.419 12.202C15.0547 13.6923 13.5927 14.8398 12.0586 14.8398H2.60801L2.8485 13.8562H12.0689C13.0201 13.8562 13.9351 13.126 14.161 12.202C14.3869 11.278 13.8291 10.5478 12.8779 10.5478H6.31159C4.77741 10.5478 3.87667 9.40029 4.24107 7.91002C4.60546 6.41974 6.07101 5.25732 7.60519 5.25732ZM18.6734 5.25732H30.8548L30.6106 6.25581H25.1489L23.05 14.8398H21.792L23.8909 6.25581H18.4292L18.6734 5.25732ZM35.2064 6.67308L30.4935 11.5165H37.5661L35.2064 6.67308ZM35.3071 5.25732H35.8134L40.6503 14.8398H39.2542L38.0254 12.3361H29.6334L27.1802 14.8398H25.7841L35.3071 5.25732ZM45.8459 6.25581L44.8948 10.1454H52.8112C53.9465 10.1454 55.0133 9.29598 55.2793 8.20807C55.549 7.10526 54.8976 6.25581 53.7623 6.25581H45.8459ZM44.8473 5.25732H54.2365C55.9395 5.25732 56.9455 6.53896 56.5374 8.20807C56.162 9.74306 54.7162 10.9502 53.1493 11.0843L54.9158 14.8398H53.6578L51.9227 11.1439H44.6507L43.747 14.8398H42.5043L44.8473 5.25732ZM63.9153 5.25732H71.4021L71.158 6.25581H63.9013C61.6921 6.25581 59.5846 7.91002 59.0599 10.056C58.5352 12.202 59.8337 13.8562 62.0429 13.8562H68.0415L68.8796 10.4286H60.8865L61.0687 9.68345H70.3199L69.0591 14.8398H61.5722C58.78 14.8398 57.1577 12.7534 57.8172 10.056C58.4804 7.34371 61.1231 5.25732 63.9153 5.25732ZM73.7331 5.25732H74.9758L72.8732 13.8562H82.2624L82.0219 14.8398H71.3901L73.7331 5.25732ZM90.0753 6.25581C87.866 6.25581 85.7586 7.91002 85.2339 10.056C84.7092 12.202 86.0076 13.8562 88.2169 13.8562H91.5154C93.7246 13.8562 95.832 12.202 96.3567 10.056C96.8814 7.91002 95.583 6.25581 93.3738 6.25581H90.0753ZM90.0893 5.25732H93.848C96.6402 5.25732 98.2626 7.34371 97.5994 10.056C96.9399 12.7534 94.2972 14.8398 91.505 14.8398H87.7462C84.954 14.8398 83.3317 12.7534 83.9912 10.056C84.6544 7.34371 87.2971 5.25732 90.0893 5.25732ZM99.2628 5.25732H100.536L102.294 13.126L107.9 5.25732H108.591L110.349 13.126L115.955 5.25732H117.167L110.236 14.8398H109.546L107.777 7.01585L102.182 14.8398H101.492L99.2628 5.25732Z"/>
</mask>
<path d="M7.60519 5.25732H16.7643L16.5201 6.25581H7.59117C6.62464 6.25581 5.70968 6.98604 5.48375 7.91002C5.25783 8.83399 5.81569 9.56423 6.78222 9.56423H13.3485C14.8827 9.56423 15.7834 10.7117 15.419 12.202C15.0547 13.6923 13.5927 14.8398 12.0586 14.8398H2.60801L2.8485 13.8562H12.0689C13.0201 13.8562 13.9351 13.126 14.161 12.202C14.3869 11.278 13.8291 10.5478 12.8779 10.5478H6.31159C4.77741 10.5478 3.87667 9.40029 4.24107 7.91002C4.60546 6.41974 6.07101 5.25732 7.60519 5.25732ZM18.6734 5.25732H30.8548L30.6106 6.25581H25.1489L23.05 14.8398H21.792L23.8909 6.25581H18.4292L18.6734 5.25732ZM35.2064 6.67308L30.4935 11.5165H37.5661L35.2064 6.67308ZM35.3071 5.25732H35.8134L40.6503 14.8398H39.2542L38.0254 12.3361H29.6334L27.1802 14.8398H25.7841L35.3071 5.25732ZM45.8459 6.25581L44.8948 10.1454H52.8112C53.9465 10.1454 55.0133 9.29598 55.2793 8.20807C55.549 7.10526 54.8976 6.25581 53.7623 6.25581H45.8459ZM44.8473 5.25732H54.2365C55.9395 5.25732 56.9455 6.53896 56.5374 8.20807C56.162 9.74306 54.7162 10.9502 53.1493 11.0843L54.9158 14.8398H53.6578L51.9227 11.1439H44.6507L43.747 14.8398H42.5043L44.8473 5.25732ZM63.9153 5.25732H71.4021L71.158 6.25581H63.9013C61.6921 6.25581 59.5846 7.91002 59.0599 10.056C58.5352 12.202 59.8337 13.8562 62.0429 13.8562H68.0415L68.8796 10.4286H60.8865L61.0687 9.68345H70.3199L69.0591 14.8398H61.5722C58.78 14.8398 57.1577 12.7534 57.8172 10.056C58.4804 7.34371 61.1231 5.25732 63.9153 5.25732ZM73.7331 5.25732H74.9758L72.8732 13.8562H82.2624L82.0219 14.8398H71.3901L73.7331 5.25732ZM90.0753 6.25581C87.866 6.25581 85.7586 7.91002 85.2339 10.056C84.7092 12.202 86.0076 13.8562 88.2169 13.8562H91.5154C93.7246 13.8562 95.832 12.202 96.3567 10.056C96.8814 7.91002 95.583 6.25581 93.3738 6.25581H90.0753ZM90.0893 5.25732H93.848C96.6402 5.25732 98.2626 7.34371 97.5994 10.056C96.9399 12.7534 94.2972 14.8398 91.505 14.8398H87.7462C84.954 14.8398 83.3317 12.7534 83.9912 10.056C84.6544 7.34371 87.2971 5.25732 90.0893 5.25732ZM99.2628 5.25732H100.536L102.294 13.126L107.9 5.25732H108.591L110.349 13.126L115.955 5.25732H117.167L110.236 14.8398H109.546L107.777 7.01585L102.182 14.8398H101.492L99.2628 5.25732Z" fill="white"/>
<path d="M16.7643 5.25732H17.0654L17.137 4.96474H16.8358L16.7643 5.25732ZM16.5201 6.25581L16.4486 6.54838H16.7498L16.8213 6.25581H16.5201ZM2.60801 14.8398H2.30681L2.23527 15.1324H2.53647L2.60801 14.8398ZM2.8485 13.8562L2.92004 13.5637H2.61885L2.54731 13.8562H2.8485ZM7.53365 5.54989H16.6927L16.8358 4.96474H7.67673L7.53365 5.54989ZM16.4631 5.25732L16.2189 6.25581H16.8213L17.0654 5.25732H16.4631ZM16.5916 5.96323H7.66271L7.51963 6.54838H16.4486L16.5916 5.96323ZM7.66271 5.96323C6.52805 5.96323 5.44757 6.82619 5.18256 7.91002H5.78495C5.97179 7.14589 6.72122 6.54838 7.51963 6.54838L7.66271 5.96323ZM5.18256 7.91002C4.91755 8.99384 5.57602 9.8568 6.71068 9.8568L6.85376 9.27165C6.05535 9.27165 5.59811 8.67414 5.78495 7.91002H5.18256ZM6.71068 9.8568H13.277L13.4201 9.27165H6.85376L6.71068 9.8568ZM13.277 9.8568C14.6448 9.8568 15.4427 10.8733 15.1179 12.202H15.7202C16.1241 10.5502 15.1206 9.27165 13.4201 9.27165L13.277 9.8568ZM15.1179 12.202C14.793 13.5307 13.4979 14.5472 12.1301 14.5472L11.987 15.1324C13.6876 15.1324 15.3163 13.8539 15.7202 12.202H15.1179ZM12.1301 14.5472H2.67954L2.53647 15.1324H11.987L12.1301 14.5472ZM2.9092 14.8398L3.1497 13.8562H2.54731L2.30681 14.8398H2.9092ZM2.77697 14.1488H11.9974L12.1405 13.5637H2.92004L2.77697 14.1488ZM11.9974 14.1488C13.1185 14.1488 14.1976 13.2841 14.4622 12.202H13.8598C13.6726 12.9679 12.9218 13.5637 12.1405 13.5637L11.9974 14.1488ZM14.4622 12.202C14.7268 11.1199 14.0705 10.2552 12.9494 10.2552L12.8064 10.8404C13.5876 10.8404 14.0471 11.4361 13.8598 12.202H14.4622ZM12.9494 10.2552H6.38313L6.24005 10.8404H12.8064L12.9494 10.2552ZM6.38313 10.2552C5.01529 10.2552 4.21738 9.23871 4.54226 7.91002H3.93987C3.53597 9.56188 4.53953 10.8404 6.24005 10.8404L6.38313 10.2552ZM4.54226 7.91002C4.86767 6.57915 6.16804 5.54989 7.53365 5.54989L7.67673 4.96474C5.97398 4.96474 4.34325 6.26032 3.93987 7.91002H4.54226ZM18.6734 5.25732L18.7449 4.96474H18.4437L18.3722 5.25732H18.6734ZM30.8548 5.25732H31.156L31.2275 4.96474H30.9263L30.8548 5.25732ZM30.6106 6.25581L30.5391 6.54838H30.8403L30.9118 6.25581H30.6106ZM25.1489 6.25581L25.2205 5.96323H24.9193L24.8477 6.25581H25.1489ZM23.05 14.8398L22.9785 15.1324H23.2797L23.3512 14.8398H23.05ZM21.792 14.8398H21.4908L21.4193 15.1324H21.7205L21.792 14.8398ZM23.8909 6.25581H24.1921L24.2636 5.96323H23.9624L23.8909 6.25581ZM18.4292 6.25581H18.128L18.0565 6.54838H18.3577L18.4292 6.25581ZM18.6018 5.54989H30.7832L30.9263 4.96474H18.7449L18.6018 5.54989ZM30.5536 5.25732L30.3094 6.25581H30.9118L31.156 5.25732H30.5536ZM30.6822 5.96323H25.2205L25.0774 6.54838H30.5391L30.6822 5.96323ZM24.8477 6.25581L22.7488 14.8398H23.3512L25.4501 6.25581H24.8477ZM23.1216 14.5472H21.8635L21.7205 15.1324H22.9785L23.1216 14.5472ZM22.0932 14.8398L24.1921 6.25581H23.5897L21.4908 14.8398H22.0932ZM23.9624 5.96323H18.5007L18.3577 6.54838H23.8194L23.9624 5.96323ZM18.7304 6.25581L18.9745 5.25732H18.3722L18.128 6.25581H18.7304ZM35.2064 6.67308L35.4934 6.50358L35.3295 6.16734L35.0019 6.50407L35.2064 6.67308ZM30.4935 11.5165L30.289 11.3475L29.8398 11.8091H30.422L30.4935 11.5165ZM37.5661 11.5165L37.4946 11.8091H38.0782L37.853 11.347L37.5661 11.5165ZM35.3071 5.25732L35.3787 4.96474H35.2254L35.1057 5.08515L35.3071 5.25732ZM35.8134 5.25732L36.099 5.08515L36.0382 4.96474H35.8849L35.8134 5.25732ZM40.6503 14.8398L40.5788 15.1324H41.1705L40.9359 14.6676L40.6503 14.8398ZM39.2542 14.8398L38.9675 15.0099L39.0277 15.1324H39.1827L39.2542 14.8398ZM38.0254 12.3361L38.3121 12.1661L38.2519 12.0436H38.0969L38.0254 12.3361ZM29.6334 12.3361L29.7049 12.0436H29.5499L29.4299 12.1661L29.6334 12.3361ZM27.1802 14.8398L27.1087 15.1324H27.2637L27.3837 15.0099L27.1802 14.8398ZM25.7841 14.8398L25.5827 14.6676L25.1208 15.1324H25.7126L25.7841 14.8398ZM35.0019 6.50407L30.289 11.3475L30.698 11.6855L35.4109 6.8421L35.0019 6.50407ZM30.422 11.8091H37.4946L37.6376 11.2239H30.5651L30.422 11.8091ZM37.853 11.347L35.4934 6.50358L34.9195 6.84258L37.2792 11.686L37.853 11.347ZM35.2356 5.54989H35.7419L35.8849 4.96474H35.3787L35.2356 5.54989ZM35.5278 5.42949L40.3647 15.012L40.9359 14.6676L36.099 5.08515L35.5278 5.42949ZM40.7219 14.5472H39.3258L39.1827 15.1324H40.5788L40.7219 14.5472ZM39.5409 14.6698L38.3121 12.1661L37.7387 12.5062L38.9675 15.0099L39.5409 14.6698ZM38.0969 12.0436H29.7049L29.5619 12.6287H37.9538L38.0969 12.0436ZM29.4299 12.1661L26.9767 14.6698L27.3837 15.0099L29.8369 12.5062L29.4299 12.1661ZM27.2517 14.5472H25.8556L25.7126 15.1324H27.1087L27.2517 14.5472ZM25.9855 15.012L35.5085 5.42949L35.1057 5.08515L25.5827 14.6676L25.9855 15.012ZM45.8459 6.25581L45.9174 5.96323H45.6162L45.5447 6.25581H45.8459ZM44.8948 10.1454H44.5936L44.5221 10.438H44.8233L44.8948 10.1454ZM44.8473 5.25732L44.9189 4.96474H44.6177L44.5461 5.25732H44.8473ZM53.1493 11.0843L53.1935 10.7929L52.6667 10.838L52.8611 11.2512L53.1493 11.0843ZM54.9158 14.8398L54.8443 15.1324H55.4201L55.204 14.6729L54.9158 14.8398ZM53.6578 14.8398L53.3695 15.0066L53.4286 15.1324H53.5863L53.6578 14.8398ZM51.9227 11.1439L52.211 10.9772L52.1519 10.8513H51.9942L51.9227 11.1439ZM44.6507 11.1439L44.7222 10.8513H44.421L44.3495 11.1439H44.6507ZM43.747 14.8398L43.6754 15.1324H43.9766L44.0482 14.8398H43.747ZM42.5043 14.8398H42.2031L42.1316 15.1324H42.4327L42.5043 14.8398ZM45.5447 6.25581L44.5936 10.1454H45.196L46.1471 6.25581H45.5447ZM44.8233 10.438H52.7397L52.8827 9.85286H44.9664L44.8233 10.438ZM52.7397 10.438C54.0428 10.438 55.2754 9.45608 55.5805 8.20807H54.9781C54.7513 9.13587 53.8502 9.85286 52.8827 9.85286L52.7397 10.438ZM55.5805 8.20807C55.889 6.94664 55.1385 5.96323 53.8338 5.96323L53.6907 6.54838C54.6566 6.54838 55.209 7.26389 54.9781 8.20807H55.5805ZM53.8338 5.96323H45.9174L45.7743 6.54838H53.6907L53.8338 5.96323ZM44.7758 5.54989H54.165L54.3081 4.96474H44.9189L44.7758 5.54989ZM54.165 5.54989C55.7006 5.54989 56.605 6.69957 56.2362 8.20807H56.8386C57.286 6.37835 56.1784 4.96474 54.3081 4.96474L54.165 5.54989ZM56.2362 8.20807C55.8978 9.59211 54.6014 10.6724 53.1935 10.7929L53.105 11.3757C54.8311 11.228 56.4263 9.89401 56.8386 8.20807H56.2362ZM52.8611 11.2512L54.6276 15.0067L55.204 14.6729L53.4375 10.9174L52.8611 11.2512ZM54.9874 14.5472H53.7293L53.5863 15.1324H54.8443L54.9874 14.5472ZM53.9461 14.6731L52.211 10.9772L51.6344 11.3107L53.3695 15.0066L53.9461 14.6731ZM51.9942 10.8513H44.7222L44.5791 11.4365H51.8512L51.9942 10.8513ZM44.3495 11.1439L43.4458 14.8398H44.0482L44.9519 11.1439H44.3495ZM43.8185 14.5472H42.5758L42.4327 15.1324H43.6754L43.8185 14.5472ZM42.8055 14.8398L45.1485 5.25732H44.5461L42.2031 14.8398H42.8055ZM71.4021 5.25732H71.7033L71.7748 4.96474H71.4736L71.4021 5.25732ZM71.158 6.25581L71.0864 6.54838H71.3876L71.4592 6.25581H71.158ZM68.0415 13.8562L67.97 14.1488H68.2712L68.3427 13.8562H68.0415ZM68.8796 10.4286H69.1808L69.2524 10.136H68.9512L68.8796 10.4286ZM60.8865 10.4286H60.5854L60.5138 10.7212H60.815L60.8865 10.4286ZM61.0687 9.68345L61.1403 9.39087H60.8391L60.7675 9.68345H61.0687ZM70.3199 9.68345H70.6211L70.6926 9.39087H70.3914L70.3199 9.68345ZM69.0591 14.8398L68.9875 15.1324H69.2887L69.3603 14.8398H69.0591ZM63.8438 5.54989H71.3306L71.4736 4.96474H63.9868L63.8438 5.54989ZM71.1009 5.25732L70.8568 6.25581H71.4592L71.7033 5.25732H71.1009ZM71.2295 5.96323H63.9728L63.8297 6.54838H71.0864L71.2295 5.96323ZM63.9728 5.96323C61.5973 5.96323 59.323 7.74843 58.7587 10.056H59.3611C59.8463 8.0716 61.7869 6.54838 63.8297 6.54838L63.9728 5.96323ZM58.7587 10.056C58.1945 12.3636 59.5958 14.1488 61.9713 14.1488L62.1144 13.5637C60.0715 13.5637 58.8759 12.0404 59.3611 10.056H58.7587ZM61.9713 14.1488H67.97L68.1131 13.5637H62.1144L61.9713 14.1488ZM68.3427 13.8562L69.1808 10.4286H68.5784L67.7403 13.8562H68.3427ZM68.9512 10.136H60.9581L60.815 10.7212H68.8081L68.9512 10.136ZM61.1877 10.4286L61.3699 9.68345H60.7675L60.5854 10.4286H61.1877ZM60.9972 9.97602H70.2483L70.3914 9.39087H61.1403L60.9972 9.97602ZM70.0187 9.68345L68.7579 14.8398H69.3603L70.6211 9.68345H70.0187ZM69.1306 14.5472H61.6438L61.5007 15.1324H68.9875L69.1306 14.5472ZM61.6438 14.5472C59.0185 14.5472 57.4982 12.5924 58.1184 10.056H57.516C56.8171 12.9144 58.5415 15.1324 61.5007 15.1324L61.6438 14.5472ZM58.1184 10.056C58.7424 7.5041 61.2191 5.54989 63.8438 5.54989L63.9868 4.96474C61.0271 4.96474 58.2184 7.18332 57.516 10.056H58.1184ZM73.7331 5.25732L73.8046 4.96474H73.5034L73.4319 5.25732H73.7331ZM74.9758 5.25732H75.277L75.3485 4.96474H75.0473L74.9758 5.25732ZM72.8732 13.8562H72.572L72.5005 14.1488H72.8017L72.8732 13.8562ZM82.2624 13.8562H82.5636L82.6352 13.5637H82.334L82.2624 13.8562ZM82.0219 14.8398L81.9504 15.1324H82.2516L82.3231 14.8398H82.0219ZM71.3901 14.8398H71.0889L71.0173 15.1324H71.3185L71.3901 14.8398ZM73.6616 5.54989H74.9043L75.0473 4.96474H73.8046L73.6616 5.54989ZM74.6746 5.25732L72.572 13.8562H73.1744L75.277 5.25732H74.6746ZM72.8017 14.1488H82.1909L82.334 13.5637H72.9448L72.8017 14.1488ZM81.9612 13.8562L81.7207 14.8398H82.3231L82.5636 13.8562H81.9612ZM82.0935 14.5472H71.4616L71.3185 15.1324H81.9504L82.0935 14.5472ZM71.6912 14.8398L74.0343 5.25732H73.4319L71.0889 14.8398H71.6912ZM90.1468 5.96323C87.7712 5.96323 85.4969 7.74843 84.9327 10.056H85.5351C86.0203 8.0716 87.9609 6.54838 90.0037 6.54838L90.1468 5.96323ZM84.9327 10.056C84.3685 12.3636 85.7698 14.1488 88.1453 14.1488L88.2884 13.5637C86.2455 13.5637 85.0499 12.0404 85.5351 10.056H84.9327ZM88.1453 14.1488H91.4438L91.5869 13.5637H88.2884L88.1453 14.1488ZM91.4438 14.1488C93.8194 14.1488 96.0937 12.3636 96.6579 10.056H96.0555C95.5703 12.0404 93.6298 13.5637 91.5869 13.5637L91.4438 14.1488ZM96.6579 10.056C97.2221 7.74843 95.8209 5.96323 93.4453 5.96323L93.3022 6.54838C95.3451 6.54838 96.5407 8.0716 96.0555 10.056H96.6579ZM93.4453 5.96323H90.1468L90.0037 6.54838H93.3022L93.4453 5.96323ZM90.0177 5.54989H93.7765L93.9196 4.96474H90.1608L90.0177 5.54989ZM93.7765 5.54989C96.4011 5.54989 97.9222 7.5041 97.2982 10.056H97.9006C98.603 7.18332 96.8794 4.96474 93.9196 4.96474L93.7765 5.54989ZM97.2982 10.056C96.678 12.5924 94.2018 14.5472 91.5765 14.5472L91.4334 15.1324C94.3926 15.1324 97.2017 12.9144 97.9006 10.056H97.2982ZM91.5765 14.5472H87.8178L87.6747 15.1324H91.4334L91.5765 14.5472ZM87.8178 14.5472C85.1925 14.5472 83.6722 12.5924 84.2924 10.056H83.69C82.9911 12.9144 84.7155 15.1324 87.6747 15.1324L87.8178 14.5472ZM84.2924 10.056C84.9164 7.5041 87.3931 5.54989 90.0177 5.54989L90.1608 4.96474C87.201 4.96474 84.3924 7.18332 83.69 10.056H84.2924ZM99.2628 5.25732L99.3344 4.96474H98.8628L98.9595 5.38034L99.2628 5.25732ZM100.536 5.25732L100.84 5.13625L100.802 4.96474H100.608L100.536 5.25732ZM102.294 13.126L101.99 13.2471L102.121 13.833L102.539 13.2471L102.294 13.126ZM107.9 5.25732L107.972 4.96474H107.778L107.656 5.13625L107.9 5.25732ZM108.591 5.25732L108.894 5.13625L108.856 4.96474H108.662L108.591 5.25732ZM110.349 13.126L110.045 13.2471L110.176 13.833L110.593 13.2471L110.349 13.126ZM115.955 5.25732L116.026 4.96474H115.832L115.71 5.13625L115.955 5.25732ZM117.167 5.25732L117.41 5.38068L117.711 4.96474H117.238L117.167 5.25732ZM110.236 14.8398L110.165 15.1324H110.357L110.479 14.9632L110.236 14.8398ZM109.546 14.8398L109.242 14.9615L109.281 15.1324H109.475L109.546 14.8398ZM107.777 7.01585L108.081 6.89421L107.949 6.31214L107.533 6.89421L107.777 7.01585ZM102.182 14.8398L102.111 15.1324H102.304L102.426 14.9615L102.182 14.8398ZM101.492 14.8398L101.188 14.9628L101.228 15.1324H101.42L101.492 14.8398ZM99.1913 5.54989H100.465L100.608 4.96474H99.3344L99.1913 5.54989ZM100.232 5.37839L101.99 13.2471L102.598 13.0049L100.84 5.13625L100.232 5.37839ZM102.539 13.2471L108.145 5.37839L107.656 5.13625L102.05 13.0049L102.539 13.2471ZM107.829 5.54989H108.519L108.662 4.96474H107.972L107.829 5.54989ZM108.287 5.37839L110.045 13.2471L110.653 13.0049L108.894 5.13625L108.287 5.37839ZM110.593 13.2471L116.199 5.37839L115.71 5.13625L110.104 13.0049L110.593 13.2471ZM115.883 5.54989H117.095L117.238 4.96474H116.026L115.883 5.54989ZM116.924 5.13395L109.994 14.7164L110.479 14.9632L117.41 5.38068L116.924 5.13395ZM110.308 14.5472H109.618L109.475 15.1324H110.165L110.308 14.5472ZM109.85 14.7182L108.081 6.89421L107.473 7.13749L109.242 14.9615L109.85 14.7182ZM107.533 6.89421L101.938 14.7182L102.426 14.9615L108.021 7.13749L107.533 6.89421ZM102.254 14.5472H101.563L101.42 15.1324H102.111L102.254 14.5472ZM101.795 14.7168L99.5662 5.13429L98.9595 5.38034L101.188 14.9628L101.795 14.7168Z" fill="white" mask="url(#path-1-outside-1_19_234)"/>
</g>
<g style="mix-blend-mode:overlay">
<path d="M89.1786 7.83495L89.2361 8.23867C89.3124 8.7748 89.6297 9.21638 90.1068 9.45057L90.2965 9.5437L90.0773 9.63682C89.526 9.87101 89.0688 10.3126 88.8227 10.8487L88.6373 11.2524L88.5799 10.8487C88.5035 10.3126 88.1863 9.87101 87.7091 9.63683L87.5194 9.5437L87.7386 9.45057C88.29 9.21638 88.7471 8.7748 88.9933 8.23867L89.1786 7.83495Z" fill="#D9D9D9"/>
</g>
<g style="mix-blend-mode:overlay">
<path d="M89.1786 7.83495L89.2361 8.23867C89.3124 8.7748 89.6297 9.21638 90.1068 9.45057L90.2965 9.5437L90.0773 9.63682C89.526 9.87101 89.0688 10.3126 88.8227 10.8487L88.6373 11.2524L88.5799 10.8487C88.5035 10.3126 88.1863 9.87101 87.7091 9.63683L87.5194 9.5437L87.7386 9.45057C88.29 9.21638 88.7471 8.7748 88.9933 8.23867L89.1786 7.83495Z" fill="#D9D9D9"/>
</g>
</svg>
