<svg width="40" height="40" viewBox="0 0 40 40" fill="none" xmlns="http://www.w3.org/2000/svg">
<path fill-rule="evenodd" clip-rule="evenodd" d="M25.1426 8C25.1426 4.68629 22.904 2 20.1426 2C17.3812 2 15.1426 4.68629 15.1426 8H25.1426Z" stroke="#E0E7FF" stroke-width="2.5" stroke-linecap="round" stroke-linejoin="round"/>
<path d="M13.2396 22.1084C12.747 21.6247 11.9556 21.6319 11.4719 22.1244C10.9882 22.617 10.9954 23.4084 11.488 23.8921L13.2396 22.1084ZM17.4547 27.9995L16.5789 28.8914C17.0651 29.3688 17.8442 29.3688 18.3305 28.8914L17.4547 27.9995ZM28.5123 18.8929C29.0049 18.4092 29.0121 17.6178 28.5284 17.1252C28.0447 16.6326 27.2533 16.6255 26.7607 17.1091L28.5123 18.8929ZM25.0909 6.75234C24.4006 6.75234 23.8409 7.31198 23.8409 8.00234C23.8409 8.69269 24.4006 9.25234 25.0909 9.25234V6.75234ZM29.3342 8.00234V9.25234C29.3473 9.25234 29.3605 9.25213 29.3736 9.25172L29.3342 8.00234ZM34 12.2867H35.25C35.25 12.2718 35.2497 12.257 35.2492 12.2422L34 12.2867ZM34 33.7108L35.2492 33.7546C35.2497 33.74 35.25 33.7254 35.25 33.7108L34 33.7108ZM29.3342 37.9977L29.3736 36.7483C29.3605 36.7479 29.3473 36.7477 29.3342 36.7477L29.3342 37.9977ZM10.6658 37.9977V36.7477C10.6527 36.7477 10.6395 36.7479 10.6264 36.7483L10.6658 37.9977ZM6 33.7133H4.75C4.75 33.7282 4.75026 33.743 4.75079 33.7578L6 33.7133ZM6 12.2867L4.75079 12.2422C4.75026 12.257 4.75 12.2718 4.75 12.2867H6ZM10.6658 8.00234L10.6264 9.25172C10.6395 9.25213 10.6527 9.25234 10.6658 9.25234L10.6658 8.00234ZM14.9091 9.25234C15.5994 9.25234 16.1591 8.69269 16.1591 8.00234C16.1591 7.31198 15.5994 6.75234 14.9091 6.75234V9.25234ZM12.3638 23.0002L11.488 23.8921L16.5789 28.8914L17.4547 27.9995L18.3305 27.1076L13.2396 22.1084L12.3638 23.0002ZM17.4547 27.9995L18.3305 28.8914L28.5123 18.8929L27.6365 18.001L26.7607 17.1091L16.5789 27.1076L17.4547 27.9995ZM25.0909 8.00234V9.25234H29.3342V8.00234V6.75234H25.0909V8.00234ZM29.3342 8.00234L29.3736 9.25172C31.1988 9.19411 32.6889 10.5935 32.7508 12.3311L34 12.2867L35.2492 12.2422C35.1369 9.08635 32.4533 6.65327 29.2947 6.75296L29.3342 8.00234ZM34 12.2867H32.75V33.7108H34H35.25V12.2867H34ZM34 33.7108L32.7508 33.6671C32.6899 35.4054 31.1995 36.8059 29.3736 36.7483L29.3342 37.9977L29.2948 39.247C32.4546 39.3467 35.1387 36.9117 35.2492 33.7546L34 33.7108ZM29.3342 37.9977V36.7477H10.6658V37.9977V39.2477H29.3342V37.9977ZM10.6658 37.9977L10.6264 36.7483C8.80123 36.8059 7.31107 35.4065 7.24921 33.6689L6 33.7133L4.75079 33.7578C4.86314 36.9137 7.54665 39.3467 10.7053 39.247L10.6658 37.9977ZM6 33.7133H7.25V12.2867H6H4.75V33.7133H6ZM6 12.2867L7.24921 12.3311C7.31107 10.5935 8.80123 9.19411 10.6264 9.25172L10.6658 8.00234L10.7053 6.75296C7.54665 6.65327 4.86314 9.08635 4.75079 12.2422L6 12.2867ZM10.6658 8.00234V9.25234H14.9091V8.00234V6.75234H10.6658V8.00234Z" fill="#E0E7FF"/>
</svg>
