<svg width="40" height="40" viewBox="0 0 40 40" fill="none" xmlns="http://www.w3.org/2000/svg">
<path d="M22.1947 4H18.4749C17.0938 4 15.9704 5.08796 15.9704 6.42559V32.8514C15.9704 34.1891 17.0938 35.277 18.4749 35.277H22.1947C23.5758 35.277 24.6991 34.1891 24.6991 32.8514V6.42559C24.7053 5.08796 23.5758 4 22.1947 4ZM23.5942 32.8575C23.5942 33.6066 22.9681 34.213 22.1947 34.213H18.4749C17.7014 34.213 17.0753 33.6066 17.0753 32.8575V6.42559C17.0753 5.67649 17.7015 5.07012 18.4749 5.07012H22.1947C22.9681 5.07012 23.5942 5.67653 23.5942 6.42559V32.8575ZM8.57397 13.7381H4.16068C2.96987 13.7381 2 14.6775 2 15.8308V33.1905C2 34.3438 2.96987 35.2831 4.16068 35.2831H8.57397C9.76478 35.2831 10.7346 34.3438 10.7346 33.1905V15.8308C10.7346 14.6775 9.76478 13.7381 8.57397 13.7381ZM9.62975 33.1905C9.62975 33.7552 9.15711 34.213 8.57397 34.213H4.16068C3.57753 34.213 3.10489 33.7552 3.10489 33.1905V15.8308C3.10489 15.266 3.57753 14.8083 4.16068 14.8083H8.57397C9.15711 14.8083 9.62975 15.266 9.62975 15.8308V33.1905ZM36.3251 8.75607H32.2862C30.9911 8.75607 29.9414 9.77269 29.9414 11.0271V33.0062C29.9414 34.2606 30.9911 35.2773 32.2862 35.2773H36.3251C37.6203 35.2773 38.67 34.2606 38.67 33.0062V11.0332C38.67 9.77877 37.6203 8.75607 36.3251 8.75607ZM37.5651 33.012C37.5651 33.6779 37.0065 34.2129 36.3251 34.2129H32.2862C31.5988 34.2129 31.0463 33.6719 31.0463 33.012V11.0329C31.0463 10.367 31.6049 9.832 32.2862 9.832H36.3251C37.0126 9.832 37.5651 10.373 37.5651 11.0329V33.012Z" fill="#E0E7FF" stroke="#E0E7FF" stroke-width="1.2"/>
</svg>
