<svg width="24" height="24" viewBox="0 0 24 24" fill="none" xmlns="http://www.w3.org/2000/svg">
<path d="M17.4923 3H6.48675C2.27164 3 1.09405 4.035 0.995003 8.0625C3.11906 8.0625 4.83592 9.82875 4.83592 12C4.83592 14.1712 3.11906 15.9263 0.995003 15.9375C1.09405 19.965 2.27164 21 6.48675 21H17.4923C21.8945 21 22.995 19.875 22.995 15.375V8.625C22.995 4.125 21.8945 3 17.4923 3Z" stroke="#F3F0FD" stroke-width="1.5" stroke-linecap="round" stroke-linejoin="round"/>
<path d="M7.995 3V7" stroke="#F3F0FD" stroke-width="1.5" stroke-linecap="round" stroke-linejoin="round"/>
<path d="M7.995 17V21" stroke="#F3F0FD" stroke-width="1.5" stroke-linecap="round" stroke-linejoin="round"/>
<path d="M15.3518 8.31954L15.9662 10.0375C16.0256 10.2024 16.1445 10.3261 16.2734 10.3536L17.6409 10.6285C17.9778 10.6972 18.1166 11.2744 17.8688 11.6043L16.8779 12.9374C16.7788 13.0611 16.7391 13.2535 16.7589 13.4459L16.9968 15.3288C17.0562 15.7961 16.6995 16.1534 16.4022 15.9335L15.1833 15.0402C15.0644 14.9577 14.9157 14.9577 14.7968 15.0402L13.5779 15.9335C13.2707 16.1534 12.9239 15.7961 12.9833 15.3288L13.2212 13.4459C13.241 13.2535 13.2013 13.0748 13.1022 12.9374L12.1212 11.6043C11.8734 11.2744 12.0122 10.6972 12.3491 10.6285L13.7166 10.3536C13.8554 10.3261 13.9644 10.2162 14.0238 10.0375L14.6283 8.31954C14.7671 7.89349 15.2031 7.89349 15.3518 8.31954Z" stroke="#F3F0FD" stroke-width="1.5" stroke-linecap="round" stroke-linejoin="round"/>
</svg>
