<svg width="20" height="24" viewBox="0 0 20 24" fill="none" xmlns="http://www.w3.org/2000/svg">
<path d="M16.6194 7.15328H13.6895C14.7756 6.67339 15.7859 6.11773 16.2405 5.68835C17.6297 4.29919 17.7055 2.15231 16.4426 0.889432C15.1797 -0.37344 13.0328 -0.27241 11.6437 1.09149C10.987 1.74819 10.1535 3.59198 9.52206 5.15794C8.89062 3.59198 8.05713 1.77344 7.40043 1.09149C6.74374 0.434798 5.91024 0.0559365 5.02623 0.00542155C4.09171 -0.0450934 3.25821 0.257996 2.62677 0.889432C1.3639 2.15231 1.46493 4.29919 2.82883 5.68835C3.28347 6.14298 4.29377 6.67339 5.37984 7.15328H2.42472C1.08607 7.15328 0 8.23935 0 9.578V21.5753C0 22.9139 1.08607 24 2.42472 24H16.6194C17.958 24 19.0441 22.9139 19.0441 21.5753V9.578C19.0441 8.23935 17.958 7.15328 16.6194 7.15328ZM12.9571 2.43014C13.3107 2.07653 13.7906 1.87447 14.2199 1.87447C14.5483 1.87447 14.8766 2.00076 15.104 2.22808C15.6344 2.75848 15.5586 3.71827 14.9019 4.37496C14.4725 4.80434 12.7803 5.56206 11.1133 6.21876C11.77 4.55176 12.5277 2.85951 12.9571 2.43014ZM4.14222 4.37496C3.48553 3.71827 3.40976 2.75848 3.94016 2.22808C4.16748 2.00076 4.47057 1.87447 4.82417 1.87447C4.84943 1.87447 4.87469 1.87447 4.9252 1.87447C5.35458 1.89973 5.7587 2.10179 6.08705 2.43014C6.51642 2.85951 7.27415 4.55176 7.93084 6.21876C6.26385 5.56206 4.5716 4.80434 4.14222 4.37496ZM13.8663 13.9475L9.11794 18.6959C8.91588 18.898 8.63805 18.999 8.38547 18.999C8.1329 18.999 7.85507 18.898 7.65301 18.6959L5.17778 16.2207C4.77366 15.8166 4.77366 15.1599 5.17778 14.7558C5.5819 14.3517 6.23859 14.3517 6.64271 14.7558L8.38547 16.4985L12.4014 12.4826C12.8055 12.0785 13.4622 12.0785 13.8663 12.4826C14.2705 12.8867 14.2705 13.5434 13.8663 13.9475Z" fill="#F3F0FD"/>
</svg>
