<svg width="21" height="21" viewBox="0 0 21 21" fill="none" xmlns="http://www.w3.org/2000/svg">
<path d="M13.5 1.95477V5.76429H11.9211V1.95477C11.9211 1.68409 11.6684 1.55376 11.5 1.55376C11.4474 1.55376 11.3947 1.56379 11.3421 1.58384L2.99474 4.58133C2.43684 4.78183 2.07895 5.28309 2.07895 5.85451V6.52619C1.12105 7.2079 0.5 8.30063 0.5 9.53371V5.85451C0.5 4.66153 1.26842 3.59888 2.43684 3.17782L10.7947 0.170304C11.0263 0.0901034 11.2684 0.0500031 11.5 0.0500031C12.5526 0.0500031 13.5 0.862033 13.5 1.95477Z" fill="#F3F0FD"/>
<path d="M20.5 12.5312V13.5337C20.5 13.8044 20.279 14.0249 19.9842 14.035H18.4474C17.8895 14.035 17.3842 13.644 17.3421 13.1227C17.3105 12.8119 17.4368 12.5212 17.6474 12.3207C17.8368 12.1302 18.1 12.03 18.3842 12.03H19.9737C20.279 12.04 20.5 12.2605 20.5 12.5312Z" fill="#F3F0FD"/>
<path d="M18.3737 10.9773H19.4474C20.0263 10.9773 20.5 10.5262 20.5 9.97481V9.53371C20.5 7.45852 18.7211 5.76428 16.5421 5.76428H4.4579C3.56316 5.76428 2.74211 6.04498 2.07895 6.52619C1.12105 7.20789 0.5 8.30062 0.5 9.53371V16.2806C0.5 18.3558 2.27895 20.05 4.4579 20.05H16.5421C18.7211 20.05 20.5 18.3558 20.5 16.2806V16.0901C20.5 15.5387 20.0263 15.0876 19.4474 15.0876H18.5316C17.5211 15.0876 16.5526 14.4961 16.2895 13.5638C16.0684 12.8019 16.3316 12.07 16.8579 11.5788C17.2474 11.1979 17.7842 10.9773 18.3737 10.9773ZM12.6053 10.7768H5.23684C4.80526 10.7768 4.44737 10.436 4.44737 10.0249C4.44737 9.61391 4.80526 9.27305 5.23684 9.27305H12.6053C13.0368 9.27305 13.3947 9.61391 13.3947 10.0249C13.3947 10.436 13.0368 10.7768 12.6053 10.7768Z" fill="#F3F0FD"/>
</svg>
