<svg width="22" height="22" viewBox="0 0 22 22" fill="none" xmlns="http://www.w3.org/2000/svg">
<path d="M19 11.2V12.9C19 16.05 17.2 17.4 14.5 17.4H5.5C2.8 17.4 1 16.05 1 12.9V7.5C1 4.35 2.8 3 5.5 3H8.2C8.07 3.38 8 3.8 8 4.25V8.15002C8 9.12002 8.32 9.94001 8.89 10.51C9.46 11.08 10.28 11.4 11.25 11.4V12.79C11.25 13.3 11.83 13.61 12.26 13.33L15.15 11.4H17.75C18.2 11.4 18.62 11.33 19 11.2Z" stroke="#F3F0FD" stroke-width="1.5" stroke-miterlimit="10" stroke-linecap="round" stroke-linejoin="round"/>
<path d="M21 4.25V8.15002C21 9.64002 20.24 10.76 19 11.2C18.62 11.33 18.2 11.4 17.75 11.4H15.15L12.26 13.33C11.83 13.61 11.25 13.3 11.25 12.79V11.4C10.28 11.4 9.46 11.08 8.89 10.51C8.32 9.94001 8 9.12002 8 8.15002V4.25C8 3.8 8.07 3.38 8.2 3C8.64 1.76 9.76 1 11.25 1H17.75C19.7 1 21 2.3 21 4.25Z" stroke="#F3F0FD" stroke-width="1.5" stroke-miterlimit="10" stroke-linecap="round" stroke-linejoin="round"/>
<path d="M6.4 21H13.6" stroke="#F3F0FD" stroke-width="1.5" stroke-miterlimit="10" stroke-linecap="round" stroke-linejoin="round"/>
<path d="M10 17.4V21" stroke="#F3F0FD" stroke-width="1.5" stroke-miterlimit="10" stroke-linecap="round" stroke-linejoin="round"/>
<path d="M17.4955 6.25H17.5045" stroke="#F3F0FD" stroke-width="1.5" stroke-linecap="round" stroke-linejoin="round"/>
<path d="M14.6957 6.25H14.7047" stroke="#F3F0FD" stroke-width="1.5" stroke-linecap="round" stroke-linejoin="round"/>
<path d="M11.8954 6.25H11.9044" stroke="#F3F0FD" stroke-width="1.5" stroke-linecap="round" stroke-linejoin="round"/>
</svg>
