<svg width="27" height="28" viewBox="0 0 27 28" fill="none" xmlns="http://www.w3.org/2000/svg">
<path d="M14 0L15.8125 6.23346C16.5491 8.76641 18.3178 10.8526 20.6668 11.959L25 14L20.6668 16.041C18.3178 17.1474 16.5491 19.2336 15.8125 21.7665L14 28L12.1875 21.7665C11.4509 19.2336 9.6822 17.1474 7.3332 16.041L3 14L7.3332 11.959C9.6822 10.8526 11.4509 8.76641 12.1875 6.23346L14 0Z" fill="#F3F0FD"/>
<path d="M26.0412 1.95876H21.9588V6.04124H26.0412V1.95876ZM24 4L23.6464 3.64645L19.6464 7.64645L20 8L20.3536 8.35355L24.3536 4.35355L24 4Z" fill="#F3F0FD"/>
<path d="M1.49429 2.28883L1.49135 6.37131L5.57383 6.37425L5.57677 2.29177L1.49429 2.28883ZM3.53406 4.33154L3.18025 4.68484L6.71324 8.22292L7.06704 7.86962L7.42085 7.51632L3.88787 3.97824L3.53406 4.33154Z" fill="#F3F0FD"/>
<path d="M0.903739 24.8738L4.9847 24.9854L5.09632 20.9045L1.01537 20.7928L0.903739 24.8738ZM7.10791 19L6.76416 18.6369L2.65628 22.526L3.00003 22.8891L3.34379 23.2522L7.45166 19.3631L7.10791 19Z" fill="#F3F0FD"/>
<path d="M26.0814 24.9375L26.1115 20.8552L22.0291 20.8251L21.9991 24.9075L26.0814 24.9375ZM20.5459 19.3198L20.1897 19.6708L23.6991 23.2323L24.0553 22.8813L24.4114 22.5304L20.902 18.9689L20.5459 19.3198Z" fill="#F3F0FD"/>
</svg>
