<svg width="433" height="433" viewBox="0 0 433 433" fill="none" xmlns="http://www.w3.org/2000/svg">
<path d="M216.5 0C336.068 0 433 96.932 433 216.5C433 336.068 336.068 433 216.5 433C96.932 433 0 336.068 0 216.5C0 96.932 96.932 0 216.5 0Z" fill="#0052FF"/>
<path d="M216.592 291.733C174.514 291.733 140.512 257.638 140.512 215.653C140.512 173.668 174.607 139.573 216.592 139.573C254.257 139.573 285.534 166.999 291.546 202.973H368.189C361.709 124.826 296.336 63.3984 216.499 63.3984C132.435 63.3984 64.2441 131.589 64.2441 215.653C64.2441 299.717 132.435 367.907 216.499 367.907C296.336 367.907 361.709 306.48 368.189 228.333H291.452C285.44 264.307 254.257 291.733 216.592 291.733Z" fill="white"/>
</svg>
