<svg width="99" height="52" viewBox="0 0 99 52" fill="none" xmlns="http://www.w3.org/2000/svg">
<path d="M90.7003 0.650391C94.7608 0.650568 98.0438 3.80056 98.1495 7.81738V8.22559L98.1476 8.24219L93.8488 44.0322C93.8316 48.2105 90.4825 51.5498 86.2999 51.5498H26.0568L26.0148 51.5391C25.7045 51.4614 25.4608 51.2391 25.3126 50.9922C25.1645 50.7452 25.0828 50.4256 25.1603 50.1152L25.4591 48.8213L25.463 48.8047L25.4679 48.7891C25.604 48.3811 26.0156 47.9503 26.5997 47.9502H86.2999C88.5066 47.9502 90.2501 46.2067 90.2501 44V43.9795L90.2521 43.958L94.549 8.18652C94.5469 7.69236 94.4342 7.19276 94.2521 6.73145L64.6163 27.5752C62.7921 29.2714 59.9981 29.3847 58.1603 27.6553V27.6543L29.173 2.86621L29.1622 2.85742L29.1525 2.84766C29.0319 2.72704 28.9279 2.59221 28.8556 2.42969C28.7827 2.26567 28.7502 2.09108 28.7501 1.90039C28.7501 1.20709 29.3068 0.650391 30.0001 0.650391H90.7003ZM60.6271 24.9336L60.6378 24.9424L60.6476 24.9521C61.1109 25.4155 61.7888 25.4154 62.2521 24.9521L62.4523 24.7529L62.4738 24.7314L62.4982 24.7139L91.4122 4.32617C91.1595 4.27507 90.8935 4.25 90.5997 4.25H36.3507L60.6271 24.9336Z" fill="#F2F2F2" stroke="#F2F2F2" stroke-width="0.7"/>
<path d="M47.6996 35.9502C48.6929 35.9502 49.4496 36.7069 49.4496 37.7002C49.4494 38.7092 48.5765 39.4502 47.6996 39.4502H16.0004C15.0072 39.4502 14.2506 38.6933 14.2504 37.7002C14.2504 36.7069 15.0071 35.9502 16.0004 35.9502H47.6996Z" fill="#F2F2F2" stroke="#F2F2F2" stroke-width="0.7"/>
<path d="M40.8223 25.75L40.8438 25.752L41.0195 25.7812C41.8863 25.963 42.5498 26.6626 42.5498 27.5996C42.5498 28.5709 41.8109 29.3535 40.7979 29.25H2.40039C1.40722 29.25 0.650588 28.4931 0.650391 27.5C0.650391 26.5067 1.40709 25.75 2.40039 25.75H40.8223Z" fill="#F2F2F2" stroke="#F2F2F2" stroke-width="0.7"/>
<path d="M30.6 15.8506C31.5933 15.8506 32.35 16.6073 32.35 17.6006C32.3498 18.5937 31.5931 19.3506 30.6 19.3506H12.0004C11.0072 19.3506 10.2506 18.5937 10.2504 17.6006C10.2504 16.6073 11.0071 15.8506 12.0004 15.8506H30.6Z" fill="#F2F2F2" stroke="#F2F2F2" stroke-width="0.7"/>
</svg>
