<svg width="1117" height="1118" viewBox="0 0 1117 1118" fill="none" xmlns="http://www.w3.org/2000/svg">
<path d="M888.873 495.294C708.844 388.38 411.889 378.55 240.03 430.71C212.43 439.086 183.244 423.5 174.885 395.91C166.519 368.293 182.083 339.128 209.703 330.738C406.986 270.855 734.941 282.42 942.193 405.447C967.016 420.186 975.159 452.245 960.447 477.026C945.721 501.848 913.636 510.031 888.873 495.294ZM882.977 653.648C870.346 674.143 843.549 680.573 823.081 667.987C672.99 575.728 444.126 549.002 266.558 602.902C243.531 609.861 219.209 596.877 212.214 573.894C205.276 550.867 218.266 526.59 241.251 519.587C444.097 458.034 696.266 487.848 868.652 593.784C889.12 606.391 895.562 633.2 882.977 653.648ZM814.638 805.727C804.601 822.187 783.172 827.343 766.773 817.31C635.621 737.154 470.544 719.053 276.137 763.456C257.403 767.752 238.732 756.013 234.459 737.28C230.168 718.553 241.864 699.879 260.639 695.604C473.384 646.969 655.878 667.901 803.087 757.855C819.5 767.879 824.668 789.32 814.638 805.727ZM558.503 0.171875C250.054 0.171875 0 250.221 0 558.664C0 867.144 250.054 1117.17 558.503 1117.17C866.958 1117.17 1117 867.144 1117 558.664C1117 250.221 866.958 0.171875 558.503 0.171875Z" fill="#1ED760"/>
</svg>
