<svg width="747" height="617" viewBox="0 0 747 617" fill="none" xmlns="http://www.w3.org/2000/svg">
<path d="M682.854 5.44534C584.422 46.2133 162.358 221.037 45.7423 268.685C-32.4657 299.205 13.3183 327.821 13.3183 327.821C13.3183 327.821 80.0783 350.709 137.31 367.877C194.534 385.045 225.054 365.973 225.054 365.973L494.014 184.757C589.39 119.901 566.502 173.309 543.606 196.205C494.014 245.805 411.99 324.005 343.318 386.957C312.798 413.661 328.054 436.549 341.414 447.997C391.006 489.965 526.446 575.805 534.07 581.525C574.366 610.053 653.63 651.117 665.686 564.357L713.374 264.877C728.638 163.781 743.894 70.3093 745.798 43.6053C751.526 -21.2587 682.854 5.44534 682.854 5.44534Z" fill="#F2F2F2"/>
</svg>
